<svg width="24" height="24" viewBox="0 0 24 24" fill="none" xmlns="http://www.w3.org/2000/svg">
<path d="M16.5 22.7498H7.5C4.2 22.7498 3.75 20.9498 3.75 18.9998V10.2198C3.75 9.80985 4.09 9.46985 4.5 9.46985C4.91 9.46985 5.25 9.80985 5.25 10.2198V18.9998C5.25 20.7398 5.55 21.2498 7.5 21.2498H16.5C18.45 21.2498 18.75 20.7398 18.75 18.9998V10.2198C18.75 9.80985 19.09 9.46985 19.5 9.46985C19.91 9.46985 20.25 9.80985 20.25 10.2198V18.9998C20.25 20.9498 19.8 22.7498 16.5 22.7498Z" fill="#292D32"/>
<path d="M19 10.7499H5C2.58 10.7499 1.25 9.41988 1.25 6.99988V4.99988C1.25 2.57988 2.58 1.24988 5 1.24988H19C21.42 1.24988 22.75 2.57988 22.75 4.99988V6.99988C22.75 9.41988 21.42 10.7499 19 10.7499ZM5 2.74988C3.42 2.74988 2.75 3.41988 2.75 4.99988V6.99988C2.75 8.57988 3.42 9.24988 5 9.24988H19C20.58 9.24988 21.25 8.57988 21.25 6.99988V4.99988C21.25 3.41988 20.58 2.74988 19 2.74988H5Z" fill="#292D32"/>
<path d="M13.8197 14.7499H10.1797C9.76969 14.7499 9.42969 14.4099 9.42969 13.9999C9.42969 13.5899 9.76969 13.2499 10.1797 13.2499H13.8197C14.2297 13.2499 14.5697 13.5899 14.5697 13.9999C14.5697 14.4099 14.2297 14.7499 13.8197 14.7499Z" fill="#292D32"/>
</svg>
