<svg width="32" height="32" viewBox="0 0 32 32" fill="none" xmlns="http://www.w3.org/2000/svg">
<g clip-path="url(#clip0_2225_1218)">
<path d="M28.5115 28.8325L24.8975 19.3295C25.2546 19.116 25.565 18.8327 25.81 18.4965C26.0734 18.1346 26.2537 17.719 26.338 17.2795C26.4224 16.8399 26.4087 16.3871 26.298 15.9535C26.2045 15.5743 26.2201 15.1764 26.3433 14.8059C26.4665 14.4353 26.6921 14.1071 26.994 13.8595C27.3437 13.573 27.6253 13.2123 27.8185 12.8036C28.0117 12.395 28.1116 11.9485 28.1111 11.4964C28.1105 11.0444 28.0096 10.5981 27.8154 10.1899C27.6213 9.78165 27.3389 9.42167 26.9885 9.13597C26.6877 8.8874 26.4633 8.55874 26.3414 8.18801C26.2195 7.81728 26.205 7.4196 26.2995 7.04097C26.4095 6.60795 26.4226 6.15602 26.338 5.71736C26.2534 5.27869 26.0731 4.86406 25.81 4.50297C25.5405 4.13214 25.1924 3.8253 24.7907 3.60432C24.3891 3.38334 23.9436 3.25364 23.486 3.22447C23.0924 3.19799 22.7138 3.06252 22.3928 2.8332C22.0717 2.60388 21.8208 2.28976 21.668 1.92597C21.4971 1.50956 21.2374 1.13546 20.907 0.829756C20.5766 0.524053 20.1835 0.294112 19.755 0.155971C19.3204 0.0138564 18.8601 -0.0317619 18.406 0.0222962C17.9519 0.0763542 17.5151 0.228788 17.126 0.468971C16.7868 0.676277 16.3969 0.785966 15.9993 0.785966C15.6017 0.785966 15.2118 0.676277 14.8725 0.468971C14.4834 0.228788 14.0466 0.0763542 13.5926 0.0222962C13.1385 -0.0317619 12.6782 0.0138564 12.2435 0.155971C11.8152 0.294205 11.4222 0.524186 11.0919 0.829881C10.7616 1.13558 10.502 1.50963 10.331 1.92597C10.1779 2.2904 9.92626 2.60497 9.60436 2.83441C9.28245 3.06385 8.903 3.19909 8.50854 3.22497C8.05164 3.25448 7.60687 3.38435 7.20587 3.60532C6.80488 3.8263 6.45753 4.13296 6.18854 4.50347C5.92528 4.86541 5.74509 5.28097 5.66082 5.72053C5.57656 6.16009 5.59029 6.61283 5.70104 7.04647C5.79468 7.42568 5.779 7.82366 5.65583 8.19433C5.53265 8.56501 5.30702 8.89322 5.00504 9.14097C4.65552 9.42752 4.37404 9.78816 4.18095 10.1968C3.98786 10.6055 3.888 11.0519 3.88857 11.5039C3.88915 11.9559 3.99015 12.4021 4.18427 12.8102C4.3784 13.2184 4.66079 13.5783 5.01104 13.864C5.31182 14.1126 5.53609 14.4413 5.65793 14.812C5.77977 15.1827 5.79419 15.5804 5.69954 15.959C5.58963 16.392 5.57651 16.8439 5.66112 17.2826C5.74573 17.7213 5.92598 18.1359 6.18904 18.497C6.43417 18.833 6.74452 19.1161 7.10155 19.3295L3.48754 28.8325C3.45369 28.9218 3.44612 29.0189 3.46574 29.1124C3.48535 29.2059 3.53133 29.2918 3.59824 29.3599C3.66514 29.4281 3.75017 29.4757 3.84326 29.497C3.93635 29.5184 4.03362 29.5127 4.12354 29.4805L8.06005 28.0655L10.0605 31.739C10.1035 31.8179 10.167 31.8838 10.2442 31.9298C10.3215 31.9757 10.4097 31.9999 10.4995 32L10.533 31.999C10.6285 31.9926 10.7202 31.959 10.7971 31.9021C10.874 31.8452 10.933 31.7674 10.967 31.678L14.3505 22.7855C14.5322 22.7168 14.7071 22.6314 14.873 22.5305C15.2123 22.3233 15.6021 22.2137 15.9995 22.2137C16.397 22.2137 16.7868 22.3233 17.126 22.5305C17.2916 22.6301 17.466 22.7148 17.647 22.7825L21.032 31.6775C21.0661 31.7669 21.1251 31.8447 21.202 31.9016C21.2789 31.9585 21.3706 31.9921 21.466 31.9985L21.4995 31.9995C21.5894 31.9994 21.6776 31.9752 21.7549 31.9293C21.8321 31.8833 21.8956 31.8174 21.9385 31.7385L23.9385 28.065L27.8755 29.48C27.9655 29.5122 28.0627 29.5179 28.1558 29.4965C28.2489 29.4752 28.3339 29.4276 28.4009 29.3594C28.4678 29.2913 28.5137 29.2054 28.5334 29.1119C28.553 29.0184 28.5454 28.9218 28.5115 28.8325ZM10.4195 30.306L8.73405 27.211C8.67699 27.1062 8.58435 27.0253 8.47285 26.9828C8.36135 26.9404 8.23834 26.9392 8.12605 26.9795L4.80854 28.172L8.03055 19.701C8.1894 19.7381 8.35088 19.763 8.51355 19.7755C8.90721 19.8019 9.28574 19.9374 9.60681 20.1667C9.92787 20.3961 10.1788 20.7102 10.3315 21.074C10.5025 21.4904 10.7622 21.8645 11.0926 22.1702C11.423 22.4759 11.8161 22.7058 12.2445 22.844C12.5536 22.9438 12.8762 22.9954 13.201 22.997L10.4195 30.306ZM14.3475 21.68C14.0821 21.8439 13.7841 21.9479 13.4743 21.9846C13.1646 22.0214 12.8505 21.9901 12.554 21.893C12.2639 21.7996 11.9976 21.6441 11.7736 21.4373C11.5497 21.2305 11.3736 20.9773 11.2575 20.6955C11.0329 20.1583 10.6631 19.6943 10.1895 19.3556C9.716 19.0168 9.15747 18.8166 8.57654 18.7775C8.26599 18.7575 7.96364 18.6694 7.69099 18.5194C7.41834 18.3694 7.1821 18.1611 6.99904 17.9095C6.82199 17.6661 6.70083 17.3867 6.64422 17.0911C6.58761 16.7955 6.59694 16.491 6.67154 16.1995C6.81094 15.6366 6.78824 15.0458 6.60607 14.4953C6.42389 13.9448 6.08968 13.4571 5.64204 13.0885C5.4061 12.8957 5.21606 12.6528 5.08575 12.3774C4.95543 12.102 4.88812 11.801 4.88869 11.4963C4.88927 11.1916 4.95772 10.8909 5.08907 10.616C5.22042 10.341 5.41137 10.0988 5.64804 9.90697C6.09453 9.53742 6.4274 9.04914 6.60824 8.49849C6.78907 7.94784 6.8105 7.35728 6.67004 6.79497C6.59621 6.50406 6.58742 6.20045 6.64428 5.90576C6.70115 5.61106 6.82228 5.33252 6.99904 5.08997C7.18285 4.83779 7.42001 4.62926 7.69363 4.47923C7.96725 4.3292 8.27059 4.24136 8.58205 4.22197C9.16193 4.18201 9.71925 3.98149 10.1917 3.64285C10.6641 3.3042 11.033 2.8408 11.257 2.30447C11.3731 2.02244 11.5493 1.76916 11.7734 1.56232C11.9976 1.35548 12.2641 1.20008 12.5545 1.10697C12.8511 1.00989 13.1652 0.978652 13.4751 1.01544C13.7849 1.05223 14.083 1.15615 14.3485 1.31997C14.846 1.62374 15.4176 1.78446 16.0005 1.78446C16.5834 1.78446 17.1551 1.62374 17.6525 1.31997C17.918 1.15619 18.216 1.05229 18.5258 1.0155C18.8355 0.978717 19.1496 1.00993 19.446 1.10697C19.7364 1.20032 20.0028 1.35587 20.2268 1.56278C20.4508 1.76969 20.627 2.02297 20.743 2.30497C20.9676 2.84198 21.3373 3.30585 21.8106 3.64461C22.284 3.98337 22.8423 4.18364 23.423 4.22297C23.7336 4.24281 24.036 4.33083 24.3088 4.48076C24.5815 4.63069 24.8179 4.83886 25.001 5.09047C25.1781 5.33384 25.2993 5.61329 25.3559 5.90888C25.4125 6.20446 25.4031 6.5089 25.3285 6.80047C25.1891 7.36333 25.2118 7.95414 25.394 8.50465C25.5762 9.05515 25.9104 9.54288 26.358 9.91147C26.594 10.1042 26.784 10.3472 26.9143 10.6226C27.0447 10.898 27.112 11.199 27.1114 11.5036C27.1108 11.8083 27.0424 12.1091 26.911 12.384C26.7797 12.6589 26.5887 12.9011 26.352 13.093C25.9056 13.4625 25.5727 13.9508 25.3919 14.5015C25.211 15.0521 25.1896 15.6427 25.33 16.205C25.4039 16.4959 25.4127 16.7995 25.3558 17.0942C25.2989 17.3889 25.1778 17.6674 25.001 17.91C24.8172 18.1621 24.58 18.3705 24.3064 18.5204C24.0328 18.6704 23.7295 18.7581 23.418 18.7775C22.8381 18.8175 22.2807 19.0181 21.8083 19.3568C21.3359 19.6955 20.967 20.159 20.743 20.6955C20.627 20.9775 20.4508 21.2308 20.2266 21.4376C20.0025 21.6445 19.736 21.7999 19.4455 21.893C19.1491 21.9904 18.8349 22.0218 18.525 21.985C18.2151 21.9482 17.917 21.8441 17.6515 21.68C17.1541 21.3762 16.5824 21.2155 15.9995 21.2155C15.4166 21.2155 14.845 21.3762 14.3475 21.68ZM23.874 26.9795C23.7617 26.9392 23.6387 26.9404 23.5272 26.9828C23.4157 27.0253 23.3231 27.1062 23.266 27.211L21.581 30.306L18.7995 22.998C19.1242 22.9962 19.4466 22.9444 19.7555 22.8445C20.184 22.7062 20.5772 22.4762 20.9077 22.1704C21.2382 21.8646 21.498 21.4905 21.669 21.074C21.822 20.7095 22.0735 20.3949 22.3954 20.1654C22.7172 19.936 23.0966 19.8008 23.491 19.775C23.6522 19.7626 23.8122 19.7378 23.9695 19.701L27.1915 28.1715L23.874 26.9795Z" fill="black"/>
<path d="M23.5 11.4999C23.5 10.0166 23.0601 8.56653 22.236 7.33317C21.4119 6.0998 20.2406 5.1385 18.8701 4.57085C17.4997 4.00319 15.9917 3.85466 14.5368 4.14405C13.082 4.43344 11.7456 5.14775 10.6967 6.19664C9.64781 7.24554 8.9335 8.58191 8.64411 10.0368C8.35472 11.4916 8.50325 12.9996 9.07091 14.3701C9.63856 15.7405 10.5999 16.9119 11.8332 17.736C13.0666 18.5601 14.5166 18.9999 16 18.9999C17.9884 18.9977 19.8948 18.2068 21.3008 16.8008C22.7069 15.3947 23.4978 13.4884 23.5 11.4999ZM16 17.9999C14.7144 17.9999 13.4577 17.6187 12.3888 16.9045C11.3199 16.1903 10.4868 15.1751 9.99479 13.9874C9.50282 12.7997 9.3741 11.4927 9.6249 10.2319C9.8757 8.97098 10.4948 7.81279 11.4038 6.90375C12.3129 5.99471 13.471 5.37564 14.7319 5.12484C15.9928 4.87403 17.2997 5.00276 18.4874 5.49473C19.6752 5.9867 20.6903 6.81982 21.4046 7.88874C22.1188 8.95766 22.5 10.2144 22.5 11.4999C22.498 13.2232 21.8126 14.8754 20.594 16.0939C19.3754 17.3125 17.7233 17.998 16 17.9999Z" fill="black"/>
<path d="M19.9753 9.84195L17.5373 9.48795L16.4473 7.27895C16.4014 7.20087 16.3359 7.13613 16.2573 7.09116C16.1787 7.04618 16.0897 7.02252 15.9991 7.02252C15.9085 7.02252 15.8195 7.04618 15.7409 7.09116C15.6623 7.13613 15.5967 7.20087 15.5508 7.27895L14.4603 9.48795L12.0223 9.84195C11.9299 9.85528 11.8431 9.89421 11.7717 9.95433C11.7003 10.0145 11.6472 10.0934 11.6183 10.1821C11.5894 10.2709 11.5859 10.366 11.6083 10.4566C11.6307 10.5472 11.678 10.6298 11.7448 10.6949L13.5098 12.4149L13.0933 14.8424C13.0776 14.9343 13.088 15.0288 13.1231 15.1151C13.1582 15.2014 13.2168 15.2762 13.2922 15.331C13.3676 15.3858 13.4568 15.4185 13.5498 15.4253C13.6428 15.4321 13.7358 15.4127 13.8183 15.3694L15.9988 14.2234L18.1793 15.3694C18.2619 15.4127 18.3549 15.4321 18.4479 15.4253C18.5408 15.4185 18.6301 15.3858 18.7055 15.331C18.7808 15.2762 18.8394 15.2014 18.8746 15.1151C18.9097 15.0288 18.92 14.9343 18.9043 14.8424L18.4878 12.4144L20.2528 10.6949C20.3197 10.6298 20.367 10.5472 20.3893 10.4566C20.4117 10.366 20.4083 10.2709 20.3794 10.1821C20.3505 10.0934 20.2974 10.0145 20.2259 9.95433C20.1545 9.89421 20.0677 9.85528 19.9753 9.84195ZM17.6018 11.8819C17.5439 11.9386 17.5005 12.0084 17.4755 12.0855C17.4506 12.1626 17.4446 12.2446 17.4583 12.3244L17.7478 14.0129L16.2313 13.2159C16.1596 13.1783 16.0798 13.1586 15.9988 13.1586C15.9178 13.1586 15.838 13.1783 15.7663 13.2159L14.2498 14.0129L14.5398 12.3244C14.5535 12.2445 14.5475 12.1625 14.5224 12.0854C14.4973 12.0084 14.4539 11.9385 14.3958 11.8819L13.1688 10.6859L14.8638 10.4394C14.9442 10.4279 15.0205 10.397 15.0862 10.3493C15.1518 10.3017 15.2049 10.2387 15.2408 10.1659L15.9988 8.62995L16.7573 10.1659C16.7931 10.2387 16.846 10.3017 16.9115 10.3494C16.977 10.3971 17.0531 10.4282 17.1333 10.4399L18.8288 10.6859L17.6018 11.8819Z" fill="black"/>
</g>
<defs>
<clipPath id="clip0_2225_1218">
<rect width="32" height="32" fill="white"/>
</clipPath>
</defs>
</svg>
