<svg width="32" height="32" viewBox="0 0 32 32" fill="none" xmlns="http://www.w3.org/2000/svg">
<path d="M16 31C7.729 31 1 24.271 1 16C1 7.729 7.729 1 16 1C24.271 1 31 7.729 31 16C31 24.271 24.271 31 16 31ZM16 3C8.832 3 3 8.832 3 16C3 23.168 8.832 29 16 29C23.168 29 29 23.168 29 16C29 8.832 23.168 3 16 3Z" fill="black"/>
<path d="M13.563 22H11.32C10.5725 21.9992 9.85584 21.702 9.32719 21.1735C8.79854 20.6451 8.50106 19.9285 8.5 19.181V12.82C8.50079 12.0725 8.79802 11.3558 9.32648 10.8272C9.85495 10.2985 10.5715 10.0011 11.319 10H13.562C13.8272 10 14.0816 10.1054 14.2691 10.2929C14.4566 10.4804 14.562 10.7348 14.562 11C14.562 11.2652 14.4566 11.5196 14.2691 11.7071C14.0816 11.8946 13.8272 12 13.562 12H11.319C11.1019 12.0003 10.8937 12.0866 10.7402 12.2402C10.5866 12.3937 10.5003 12.6019 10.5 12.819V19.18C10.5003 19.3971 10.5866 19.6053 10.7402 19.7588C10.8937 19.9124 11.1019 19.9987 11.319 19.999H13.562C13.6934 19.9989 13.8235 20.0247 13.9449 20.075C14.0663 20.1252 14.1767 20.1988 14.2696 20.2917C14.3626 20.3845 14.4363 20.4948 14.4867 20.6162C14.537 20.7375 14.5629 20.8676 14.563 20.999C14.5631 21.1304 14.5373 21.2605 14.487 21.3819C14.4368 21.5033 14.3632 21.6137 14.2703 21.7066C14.1775 21.7996 14.0672 21.8733 13.9458 21.9237C13.8245 21.974 13.6944 21.9999 13.563 22ZM19.25 22H19.212C18.9945 21.9918 18.7856 21.9129 18.617 21.7751C18.4485 21.6374 18.3294 21.4485 18.278 21.237L15.84 11.237C15.8089 11.1094 15.8033 10.977 15.8234 10.8472C15.8436 10.7175 15.8891 10.5929 15.9573 10.4808C16.0256 10.3686 16.1152 10.271 16.2212 10.1935C16.3272 10.1159 16.4474 10.0601 16.575 10.029C16.7026 9.99794 16.835 9.99232 16.9648 10.0124C17.0945 10.0326 17.2191 10.0781 17.3312 10.1463C17.4434 10.2146 17.541 10.3042 17.6185 10.4102C17.6961 10.5162 17.7519 10.6364 17.783 10.764L19.387 17.342L21.548 10.692C21.6321 10.4425 21.8112 10.2361 22.0465 10.1179C22.2818 9.9996 22.5542 9.9789 22.8047 10.0603C23.0551 10.1417 23.2633 10.3185 23.3842 10.5525C23.505 10.7865 23.5287 11.0587 23.45 11.31L20.2 21.31C20.1349 21.5107 20.0079 21.6855 19.8372 21.8095C19.6665 21.9335 19.461 22.0002 19.25 22Z" fill="black"/>
</svg>
