<svg width="32" height="32" viewBox="0 0 32 32" fill="none" xmlns="http://www.w3.org/2000/svg">
<g clip-path="url(#clip0_2225_1255)">
<path d="M30.7814 8.86309L17.7963 3.29793C16.6547 2.8087 15.3446 2.80909 14.2016 3.29889L1.21937 8.86277C0.467264 9.18503 0 9.89352 0 10.7117C0 11.5295 0.466945 12.2376 1.2186 12.5597L2.75321 13.2174C2.75161 13.2333 2.75078 13.2494 2.75078 13.2656V20.5276C2.1576 20.728 1.72916 21.2894 1.72916 21.9494C1.72916 22.332 1.87333 22.6814 2.1099 22.9468C1.84824 23.2033 1.6745 23.551 1.63862 23.945L1.27096 27.9895C1.25866 28.1265 1.27496 28.2645 1.31883 28.3948C1.3627 28.5251 1.43318 28.6448 1.52579 28.7465C1.6186 28.8479 1.7315 28.929 1.8573 28.9844C1.98311 29.0399 2.11907 29.0687 2.25657 29.0688H4.2027C4.48007 29.0688 4.74645 28.9513 4.93348 28.7465C5.0261 28.6448 5.09658 28.5251 5.14045 28.3948C5.18432 28.2645 5.20062 28.1265 5.18831 27.9895L4.82065 23.945C4.78483 23.5511 4.61103 23.2033 4.34936 22.9468C4.58593 22.6815 4.73011 22.332 4.73011 21.9494C4.73011 21.2895 4.30167 20.7281 3.70849 20.5276V13.6268L6.32882 14.7499C6.3272 14.7658 6.3264 14.7819 6.32639 14.7979V18.4543C6.32639 19.9802 7.37126 21.3919 9.2686 22.4294C11.0744 23.4168 13.465 23.9606 15.9999 23.9606C18.5347 23.9606 20.9253 23.4168 22.7311 22.4294C24.6284 21.3919 25.6734 19.9802 25.6734 18.4543V14.7979C25.6734 14.7817 25.6725 14.7657 25.6709 14.7499L30.7806 12.5601C31.5327 12.2378 31.9999 11.5292 31.9999 10.7111C32 9.89333 31.5331 9.18522 30.7814 8.86309ZM4.22626 28.1006C4.21681 28.111 4.20653 28.111 4.2027 28.111H2.25657C2.25268 28.111 2.24246 28.111 2.23301 28.1006C2.2235 28.0902 2.22445 28.08 2.22477 28.0762L2.59243 24.0317C2.60621 23.8725 2.6794 23.7242 2.79746 23.6164C2.91551 23.5086 3.0698 23.4492 3.22967 23.4499C3.38952 23.4492 3.54379 23.5086 3.66183 23.6164C3.77987 23.7242 3.85305 23.8725 3.86684 24.0317L4.23449 28.0762C4.23488 28.08 4.23577 28.0902 4.22626 28.1006ZM3.22967 22.4921C2.93039 22.4921 2.68693 22.2486 2.68693 21.9494C2.68693 21.6501 2.93039 21.4066 3.22967 21.4066C3.52894 21.4066 3.7724 21.6501 3.7724 21.9494C3.7724 22.2486 3.52894 22.4921 3.22967 22.4921ZM24.7156 16.4111C24.7156 17.6494 23.6965 18.8584 21.9194 19.7282C21.8629 19.7558 21.8124 19.7943 21.7708 19.8415C21.7292 19.8886 21.6973 19.9435 21.6769 20.003C21.6565 20.0625 21.6481 20.1254 21.652 20.1882C21.6559 20.2509 21.6722 20.3123 21.6998 20.3688C21.7275 20.4253 21.766 20.4758 21.8131 20.5174C21.8603 20.559 21.9152 20.5909 21.9747 20.6113C22.0342 20.6317 22.0971 20.6402 22.1599 20.6362C22.2226 20.6323 22.284 20.616 22.3405 20.5884C23.3262 20.106 24.1159 19.5183 24.6789 18.8648C24.4994 19.8747 23.6608 20.8296 22.2718 21.5891C20.6044 22.5008 18.3771 23.0029 16 23.0029C13.6229 23.0029 11.3956 22.5008 9.7282 21.5891C8.34422 20.8323 7.50649 19.8816 7.32286 18.8757C7.80691 19.4337 8.46005 19.944 9.26866 20.3862C11.0745 21.3736 13.4651 21.9174 15.9999 21.9174C16.7091 21.9174 17.4164 21.8743 18.1021 21.7892C18.1645 21.7815 18.2248 21.7615 18.2795 21.7305C18.3342 21.6995 18.3822 21.658 18.4209 21.6084C18.4596 21.5588 18.4881 21.502 18.5048 21.4414C18.5215 21.3808 18.5262 21.3175 18.5184 21.255C18.5107 21.1926 18.4908 21.1323 18.4598 21.0776C18.4287 21.0229 18.3872 20.9748 18.3376 20.9362C18.288 20.8975 18.2313 20.869 18.1706 20.8523C18.11 20.8356 18.0467 20.831 17.9842 20.8387C17.3374 20.919 16.6698 20.9597 15.9999 20.9597C13.6229 20.9597 11.3956 20.4576 9.72814 19.5459C8.15216 18.6841 7.28423 17.5709 7.28423 16.4111V15.1593L14.2037 18.1249C14.7741 18.3694 15.3866 18.4916 15.9994 18.4916C16.6128 18.4916 17.2266 18.3691 17.7984 18.124L24.7156 15.1595V16.4111ZM30.4033 11.6798L17.421 17.2436C16.5179 17.6306 15.4827 17.631 14.581 17.2445L4.65911 12.9922L13.7502 11.4111C14.1591 11.8951 14.9924 12.212 15.9999 12.212C17.4378 12.212 18.5221 11.5669 18.5221 10.7115C18.5221 9.85604 17.4378 9.21095 15.9999 9.21095C14.694 9.21095 13.68 9.74309 13.5048 10.4816L3.14762 12.2828C3.11783 12.2881 3.0886 12.2961 3.06033 12.3069L1.59596 11.6793C1.19632 11.5081 0.95777 11.1463 0.95777 10.7117C0.95777 10.2766 1.19664 9.91447 1.59667 9.74303L14.5789 4.17915C15.0283 3.98713 15.512 3.8883 16.0007 3.88862C16.4847 3.88862 16.9686 3.98516 17.419 4.17819L30.4041 9.74334C30.8037 9.91459 31.0422 10.2764 31.0422 10.711C31.0422 11.1462 30.8034 11.5083 30.4033 11.6798ZM14.4356 10.7115C14.4356 10.572 14.9735 10.1688 15.9999 10.1688C17.0264 10.1688 17.5643 10.572 17.5643 10.7115C17.5643 10.851 17.0264 11.2543 15.9999 11.2543C14.9735 11.2543 14.4356 10.851 14.4356 10.7115Z" fill="black"/>
<path d="M19.5761 21.5232C19.6118 21.5232 19.6481 21.5192 19.6843 21.5108C20.0407 21.4287 20.3937 21.3325 20.7426 21.2225C20.9947 21.1428 21.1345 20.8737 21.0547 20.6215C20.975 20.3694 20.706 20.2295 20.4537 20.3093C20.129 20.4116 19.8005 20.5011 19.4688 20.5775C19.345 20.6061 19.2377 20.6827 19.1704 20.7904C19.1031 20.8981 19.0814 21.0281 19.1099 21.1519C19.1343 21.2573 19.1936 21.3514 19.2783 21.4188C19.3629 21.4863 19.4679 21.523 19.5761 21.5232Z" fill="black"/>
</g>
<defs>
<clipPath id="clip0_2225_1255">
<rect width="32" height="32" fill="white"/>
</clipPath>
</defs>
</svg>
