<svg width="32" height="32" viewBox="0 0 32 32" fill="none" xmlns="http://www.w3.org/2000/svg">
<path d="M12.0105 2.19325C11.9835 2.12649 11.969 2.05467 11.9678 1.98188C11.9666 1.9091 11.9788 1.83677 12.0036 1.76904C12.0285 1.70132 12.0655 1.63951 12.1126 1.58715C12.1597 1.53479 12.2159 1.4929 12.2781 1.46389C13.323 0.975936 14.4352 0.728566 15.5835 0.728566C16.4392 0.729031 17.2897 0.870962 18.1052 1.14937L17.9232 0.862091C17.8476 0.740519 17.8198 0.591815 17.8458 0.448344C17.8719 0.304872 17.9496 0.178245 18.0621 0.0960221C18.1746 0.0137992 18.3128 -0.0173647 18.4466 0.00931328C18.5804 0.0359912 18.699 0.118352 18.7766 0.238469L19.9428 2.07947C19.9904 2.15462 20.02 2.24117 20.0291 2.33152C20.0382 2.42187 20.0265 2.51323 19.995 2.59758C19.9636 2.68193 19.9132 2.75667 19.8485 2.81523C19.7838 2.8738 19.7067 2.91438 19.624 2.93342L17.7897 3.35478C17.754 3.36297 17.7177 3.36713 17.6812 3.36718C17.5539 3.36687 17.4311 3.31601 17.3365 3.22436C17.242 3.13272 17.1823 3.00677 17.169 2.87073C17.1556 2.73468 17.1896 2.59815 17.2643 2.48738C17.3391 2.37661 17.4493 2.29941 17.5738 2.27064L17.8172 2.21473C17.0954 1.96507 16.3418 1.83771 15.5835 1.83723C14.5775 1.83723 13.6039 2.05369 12.6895 2.48067C12.564 2.53925 12.422 2.54188 12.2946 2.48798C12.1673 2.43408 12.0651 2.32806 12.0105 2.19325ZM22.5785 31.3867C22.5862 31.464 22.5787 31.5422 22.5564 31.6162C22.5341 31.6902 22.4976 31.7584 22.4492 31.8162C22.4008 31.874 22.3416 31.9203 22.2755 31.952C22.2094 31.9836 22.1378 32 22.0654 32H9.93464C9.86224 32 9.79064 31.9836 9.72451 31.952C9.65838 31.9203 9.59919 31.874 9.55079 31.8162C9.50239 31.7584 9.46587 31.6902 9.44359 31.6162C9.42131 31.5422 9.41378 31.464 9.42148 31.3867C9.70329 28.5581 11.4955 26.2738 13.8856 25.4132C12.9859 24.7094 12.3995 23.5702 12.3995 22.286C12.3995 20.1538 14.0147 18.4189 16.0001 18.4189C17.9854 18.4189 19.6006 20.1537 19.6006 22.286C19.6006 23.5702 19.0143 24.7095 18.1145 25.4132C20.5044 26.2738 22.2966 28.5581 22.5785 31.3867ZM16 25.0444C17.4162 25.0444 18.5683 23.807 18.5683 22.286C18.5683 20.765 17.4162 19.5276 16 19.5276C14.5838 19.5276 13.4317 20.765 13.4317 22.286C13.4317 23.807 14.5839 25.0444 16 25.0444ZM21.4614 30.8913C20.9204 28.1504 18.6661 26.153 16 26.153C13.3338 26.153 11.0795 28.1504 10.5386 30.8913H21.4614ZM4.77936 14.2457C4.39884 14.1263 4.03155 13.9628 3.684 13.758L2.98194 14.0928C2.88662 14.1383 2.7807 14.1517 2.67815 14.1313C2.5756 14.1108 2.48124 14.0575 2.40748 13.9782L1.29613 12.7847C1.22238 12.7055 1.17271 12.6041 1.15366 12.494C1.13461 12.3839 1.14708 12.2701 1.18942 12.1677L1.5011 11.414C1.31032 11.0406 1.15798 10.646 1.04677 10.2371L0.330645 9.94112C0.233324 9.90084 0.149644 9.82984 0.0906234 9.73749C0.0316024 9.64513 7.88523e-06 9.53574 0 9.42372V7.73586C-9.01057e-07 7.62383 0.0315985 7.51444 0.0906342 7.42209C0.14967 7.32974 0.233372 7.25877 0.33071 7.21853L1.04697 6.92245C1.15813 6.5137 1.31042 6.11918 1.50116 5.74588L1.18935 4.99192C1.14702 4.88954 1.13457 4.77578 1.15363 4.66565C1.17269 4.55551 1.22237 4.45416 1.29613 4.37495L2.40742 3.18141C2.48114 3.10215 2.57551 3.04876 2.67807 3.02829C2.78063 3.00781 2.88655 3.02122 2.98187 3.06673L3.68387 3.40162C4.03145 3.19682 4.39875 3.03327 4.77929 2.91387L5.05503 2.14446C5.0925 2.03992 5.15858 1.95003 5.24457 1.88662C5.33055 1.82321 5.43241 1.78928 5.53671 1.78928H7.10832C7.21262 1.78928 7.31448 1.82321 7.40046 1.88662C7.48645 1.95003 7.55253 2.03992 7.59 2.14446L7.86574 2.91387C8.24626 3.03329 8.61354 3.19683 8.9611 3.40162L9.66316 3.06673C9.7585 3.02134 9.86439 3.00799 9.96692 3.02844C10.0695 3.0489 10.1638 3.1022 10.2376 3.18134L11.349 4.37495C11.4227 4.45417 11.4724 4.55552 11.4914 4.66566C11.5105 4.77579 11.498 4.88954 11.4557 4.99192L11.144 5.7456C11.3348 6.119 11.4871 6.51361 11.5983 6.92245L12.3144 7.21846C12.4117 7.25868 12.4954 7.32965 12.5545 7.42201C12.6135 7.51436 12.6451 7.62376 12.6451 7.73579V9.42372C12.6451 9.53574 12.6135 9.64514 12.5545 9.73748C12.4954 9.82983 12.4117 9.90081 12.3144 9.94105L11.598 10.2371C11.4868 10.6458 11.3346 11.0403 11.1439 11.4136L11.4557 12.1677C11.498 12.27 11.5105 12.3838 11.4914 12.4939C11.4723 12.6041 11.4227 12.7054 11.3489 12.7846L10.2376 13.9782C10.1639 14.0575 10.0695 14.1108 9.96694 14.1313C9.86439 14.1517 9.75848 14.1383 9.66316 14.0928L8.96142 13.7581C8.61374 13.963 8.24633 14.1266 7.86568 14.246L7.59 15.0152C7.55253 15.1197 7.48645 15.2096 7.40046 15.273C7.31448 15.3364 7.21262 15.3704 7.10832 15.3704H5.53677C5.43247 15.3704 5.33061 15.3364 5.24462 15.273C5.15863 15.2096 5.09256 15.1197 5.0551 15.0151L4.77936 14.2457ZM3.986 12.6645C4.38783 12.9305 4.82665 13.1259 5.28587 13.2433C5.36744 13.2642 5.44305 13.306 5.50617 13.3653C5.56929 13.4246 5.61801 13.4994 5.64813 13.5835L5.89116 14.2617H6.75406L6.99703 13.5837C7.02713 13.4997 7.07585 13.4248 7.13896 13.3655C7.20207 13.3063 7.27767 13.2644 7.35923 13.2436C7.81859 13.1262 8.25756 12.9308 8.65955 12.6647C8.73092 12.6174 8.81195 12.5896 8.89562 12.5835C8.97928 12.5775 9.06306 12.5934 9.13968 12.63L9.75839 12.9252L10.3686 12.2699L10.0936 11.605C10.0596 11.5227 10.0447 11.4328 10.0503 11.3429C10.0559 11.2531 10.0819 11.1661 10.1258 11.0894C10.3735 10.6578 10.5555 10.1865 10.6648 9.69333C10.6842 9.60575 10.7232 9.52455 10.7783 9.45677C10.8335 9.389 10.9032 9.33667 10.9815 9.30433L11.613 9.04324V8.11654L10.9817 7.85552C10.9035 7.82319 10.8338 7.77088 10.7786 7.70311C10.7234 7.63535 10.6844 7.55417 10.665 7.46659C10.5558 6.97321 10.3738 6.50177 10.126 6.07009C10.082 5.99342 10.0561 5.9064 10.0505 5.81655C10.0449 5.7267 10.0597 5.63673 10.0937 5.55443L10.3685 4.88985L9.75832 4.23457L9.13929 4.52989C9.06267 4.56642 8.97892 4.58236 8.89528 4.57634C8.81164 4.57031 8.73062 4.5425 8.65923 4.49531C8.25742 4.22921 7.81859 4.03379 7.35935 3.91645C7.2778 3.89564 7.2022 3.85379 7.13909 3.79453C7.07598 3.73528 7.02726 3.66039 6.99716 3.57637L6.75406 2.89815H5.8911L5.648 3.57637C5.6179 3.66039 5.56918 3.73528 5.50607 3.79453C5.44297 3.85379 5.36736 3.89564 5.28581 3.91645C4.82656 4.03383 4.38772 4.22924 3.98587 4.49531C3.91448 4.54254 3.83345 4.57037 3.74979 4.57639C3.66613 4.58241 3.58236 4.56645 3.50574 4.52989L2.88677 4.23457L2.27658 4.88985L2.55148 5.5547C2.58552 5.637 2.60037 5.72697 2.59475 5.81682C2.58913 5.90667 2.56321 5.9937 2.51923 6.07037C2.27145 6.50193 2.0895 6.97326 1.98026 7.46652C1.96085 7.55411 1.92187 7.6353 1.86669 7.70308C1.81151 7.77086 1.74178 7.82318 1.66355 7.85552L1.03226 8.11647V9.04311L1.66348 9.30413C1.74171 9.33646 1.81143 9.38877 1.86661 9.45654C1.92179 9.5243 1.96078 9.60548 1.98019 9.69306C2.08949 10.1864 2.27146 10.6579 2.51923 11.0896C2.56321 11.1663 2.58913 11.2533 2.59475 11.3432C2.60037 11.433 2.58552 11.523 2.55148 11.6053L2.27671 12.2699L2.8869 12.9251L3.506 12.6298C3.58261 12.5933 3.66635 12.5774 3.74999 12.5834C3.83363 12.5894 3.91463 12.6173 3.986 12.6645ZM6.32258 12.0779C4.52671 12.0779 3.06561 10.5087 3.06561 8.57982C3.06561 6.65096 4.52665 5.08165 6.32258 5.08165C8.11852 5.08165 9.57961 6.65089 9.57961 8.57975C9.57961 10.5086 8.11845 12.0779 6.32258 12.0779ZM6.32258 10.9692C7.54935 10.9692 8.54735 9.89733 8.54735 8.57982C8.54735 7.26232 7.54929 6.19031 6.32258 6.19031C5.09587 6.19031 4.09787 7.26225 4.09787 8.57975C4.09787 9.89726 5.09581 10.9692 6.32258 10.9692ZM32 8.57969C32 12.324 29.1637 15.3702 25.6774 15.3702C22.1911 15.3702 19.3548 12.324 19.3548 8.57969C19.3548 4.83539 22.1911 1.78914 25.6774 1.78914C29.1637 1.78914 32 4.83539 32 8.57969ZM30.9677 8.57969C30.9677 5.44668 28.5945 2.8978 25.6774 2.8978C22.7603 2.8978 20.3871 5.44668 20.3871 8.57969C20.3871 11.7127 22.7603 14.2616 25.6774 14.2616C28.5945 14.2616 30.9677 11.7127 30.9677 8.57969ZM25.6774 5.00093C25.5405 5.00093 25.4093 5.05933 25.3125 5.16329C25.2157 5.26725 25.1613 5.40824 25.1613 5.55526V8.02535H23.9525C23.8156 8.02535 23.6844 8.08376 23.5876 8.18771C23.4908 8.29167 23.4364 8.43267 23.4364 8.57969C23.4364 8.7267 23.4908 8.8677 23.5876 8.97166C23.6844 9.07561 23.8156 9.13402 23.9525 9.13402H25.6774C25.8143 9.13402 25.9456 9.07561 26.0424 8.97166C26.1392 8.8677 26.1935 8.7267 26.1935 8.57969V5.55526C26.1935 5.40824 26.1392 5.26725 26.0424 5.16329C25.9456 5.05933 25.8143 5.00093 25.6774 5.00093ZM25.6774 3.06022C25.5405 3.06022 25.4093 3.11862 25.3125 3.22258C25.2157 3.32653 25.1613 3.46753 25.1613 3.61455V4.1528C25.1613 4.29982 25.2157 4.44082 25.3125 4.54477C25.4093 4.64873 25.5405 4.70713 25.6774 4.70713C25.8143 4.70713 25.9456 4.64873 26.0424 4.54477C26.1392 4.44082 26.1935 4.29982 26.1935 4.1528V3.61455C26.1935 3.46753 26.1392 3.32653 26.0424 3.22258C25.9456 3.11862 25.8143 3.06022 25.6774 3.06022ZM28.5921 6.00378C28.6599 6.00388 28.727 5.98958 28.7896 5.9617C28.8523 5.93383 28.9092 5.89293 28.957 5.84136L29.3114 5.46075C29.3593 5.40927 29.3973 5.34816 29.4232 5.28091C29.4492 5.21366 29.4625 5.14158 29.4625 5.06879C29.4625 4.99599 29.4491 4.92391 29.4232 4.85667C29.3972 4.78942 29.3592 4.72832 29.3113 4.67685C29.2634 4.62537 29.2065 4.58454 29.1439 4.55668C29.0812 4.52882 29.0141 4.51449 28.9463 4.5145C28.8786 4.5145 28.8114 4.52885 28.7488 4.55672C28.6862 4.58459 28.6293 4.62543 28.5814 4.67692L28.2271 5.05754C28.1792 5.10901 28.1412 5.17012 28.1152 5.23737C28.0893 5.30463 28.0759 5.37671 28.076 5.4495C28.076 5.52229 28.0893 5.59437 28.1153 5.66162C28.1412 5.72887 28.1792 5.78997 28.2272 5.84143C28.275 5.89298 28.3319 5.93387 28.3945 5.96173C28.4571 5.98959 28.5243 6.00388 28.5921 6.00378ZM28.957 11.3181C28.86 11.2152 28.729 11.1577 28.5927 11.1581C28.4563 11.1586 28.3257 11.2169 28.2293 11.3205C28.1329 11.424 28.0785 11.5643 28.0781 11.7108C28.0777 11.8572 28.1313 11.9979 28.2271 12.102L28.5814 12.4826C28.6822 12.5908 28.8143 12.6449 28.9464 12.6449C29.0785 12.6449 29.2106 12.5908 29.3114 12.4826C29.3593 12.4311 29.3973 12.37 29.4232 12.3027C29.4492 12.2355 29.4625 12.1634 29.4625 12.0906C29.4625 12.0178 29.4492 11.9457 29.4232 11.8785C29.3973 11.8112 29.3593 11.7501 29.3114 11.6986L28.957 11.3181ZM22.3979 11.3181L22.0435 11.6986C21.9956 11.7501 21.9575 11.8112 21.9316 11.8784C21.9057 11.9457 21.8923 12.0178 21.8923 12.0906C21.8923 12.1634 21.9057 12.2354 21.9316 12.3027C21.9575 12.3699 21.9956 12.431 22.0435 12.4825C22.0914 12.5341 22.1482 12.575 22.2109 12.6028C22.2735 12.6307 22.3407 12.645 22.4085 12.6449C22.4762 12.645 22.5434 12.6307 22.606 12.6029C22.6686 12.575 22.7255 12.5341 22.7734 12.4826L23.1278 12.102C23.1757 12.0506 23.2138 11.9895 23.2397 11.9222C23.2656 11.855 23.279 11.7829 23.279 11.7101C23.279 11.6373 23.2656 11.5652 23.2397 11.498C23.2138 11.4307 23.1757 11.3696 23.1278 11.3181C23.031 11.2142 22.8997 11.1558 22.7629 11.1558C22.626 11.1558 22.4947 11.2142 22.3979 11.3181ZM22.7734 4.67685C22.6766 4.57291 22.5453 4.51452 22.4085 4.51451C22.2716 4.51449 22.1403 4.57286 22.0435 4.67678C21.9956 4.72825 21.9575 4.78936 21.9316 4.85661C21.9057 4.92386 21.8923 4.99594 21.8923 5.06873C21.8923 5.14152 21.9057 5.2136 21.9316 5.28085C21.9575 5.3481 21.9956 5.40921 22.0435 5.46068L22.3979 5.84129C22.4457 5.89286 22.5026 5.93375 22.5653 5.96162C22.6279 5.9895 22.695 6.0038 22.7628 6.00371C22.8649 6.00374 22.9647 5.97124 23.0496 5.91034C23.1345 5.84944 23.2007 5.76287 23.2397 5.66157C23.2788 5.56028 23.289 5.44882 23.2691 5.34129C23.2492 5.23376 23.2 5.13499 23.1278 5.05747L22.7734 4.67685ZM30.3005 8.02535H29.7994C29.6625 8.02535 29.5312 8.08376 29.4344 8.18771C29.3376 8.29167 29.2832 8.43267 29.2832 8.57969C29.2832 8.7267 29.3376 8.8677 29.4344 8.97166C29.5312 9.07561 29.6625 9.13402 29.7994 9.13402H30.3005C30.4373 9.13402 30.5686 9.07561 30.6654 8.97166C30.7622 8.8677 30.8166 8.7267 30.8166 8.57969C30.8166 8.43267 30.7622 8.29167 30.6654 8.18771C30.5686 8.08376 30.4373 8.02535 30.3005 8.02535ZM25.6774 12.4524C25.5405 12.4524 25.4093 12.5108 25.3125 12.6147C25.2157 12.7187 25.1613 12.8597 25.1613 13.0067V13.545C25.1613 13.692 25.2157 13.833 25.3125 13.9369C25.4093 14.0409 25.5405 14.0993 25.6774 14.0993C25.8143 14.0993 25.9456 14.0409 26.0424 13.9369C26.1392 13.833 26.1935 13.692 26.1935 13.545V13.0067C26.1935 12.8597 26.1392 12.7187 26.0424 12.6147C25.9456 12.5108 25.8143 12.4524 25.6774 12.4524ZM22.0716 8.57969C22.0716 8.43267 22.0172 8.29167 21.9204 8.18771C21.8236 8.08376 21.6924 8.02535 21.5555 8.02535H21.0543C20.9174 8.02535 20.7862 8.08376 20.6894 8.18771C20.5926 8.29167 20.5382 8.43267 20.5382 8.57969C20.5382 8.7267 20.5926 8.8677 20.6894 8.97166C20.7862 9.07561 20.9174 9.13402 21.0543 9.13402H21.5555C21.6924 9.13402 21.8236 9.07561 21.9204 8.97166C22.0172 8.8677 22.0716 8.7267 22.0716 8.57969ZM27.1892 17.0566C26.924 16.9446 26.6243 17.0843 26.5197 17.3691C26.1543 18.3654 25.6083 19.258 24.897 20.022C24.3605 20.5975 23.7437 21.0798 23.069 21.4514L23.2043 21.227C23.2419 21.1659 23.2679 21.0974 23.2808 21.0255C23.2936 20.9535 23.293 20.8796 23.2791 20.8079C23.2651 20.7362 23.2381 20.6682 23.1996 20.6077C23.161 20.5473 23.1117 20.4957 23.0544 20.4559C22.9972 20.4161 22.9331 20.3888 22.866 20.3758C22.7989 20.3627 22.7301 20.364 22.6635 20.3797C22.5968 20.3953 22.5338 20.425 22.4779 20.467C22.422 20.509 22.3745 20.5625 22.3379 20.6244L21.3183 22.3154C21.2723 22.3916 21.2444 22.4789 21.2372 22.5695C21.23 22.66 21.2436 22.7511 21.2769 22.8346C21.3102 22.9182 21.3621 22.9917 21.428 23.0487C21.4939 23.1056 21.5719 23.1443 21.655 23.1613L23.6917 23.5774C23.8248 23.6013 23.9612 23.5682 24.0719 23.4854C24.1825 23.4025 24.2586 23.2765 24.2838 23.1341C24.309 22.9918 24.2814 22.8446 24.2068 22.7239C24.1322 22.6032 24.0165 22.5186 23.8846 22.4883L23.5668 22.4234C24.3268 22.001 25.0216 21.4554 25.627 20.8059C26.439 19.9338 27.0625 18.9142 27.4802 17.7757C27.5304 17.6389 27.5279 17.4863 27.4733 17.3514C27.4187 17.2166 27.3165 17.1105 27.1892 17.0566ZM9.89503 23.6368C9.95522 23.6624 10.0193 23.6755 10.0841 23.6756C10.2043 23.6757 10.3208 23.6307 10.4135 23.5483C10.5061 23.466 10.5691 23.3515 10.5915 23.2247C10.614 23.0978 10.5945 22.9665 10.5364 22.8534C10.4783 22.7404 10.3853 22.6526 10.2734 22.6054C9.34574 22.2129 8.51477 21.6265 7.80342 20.8625C7.26747 20.2863 6.81842 19.6239 6.47245 18.8992L6.68142 19.0445C6.7383 19.085 6.80208 19.1129 6.86906 19.1266C6.93604 19.1404 7.0049 19.1398 7.07166 19.1248C7.13843 19.1099 7.20176 19.0808 7.25801 19.0394C7.31427 18.998 7.36232 18.945 7.39939 18.8835C7.43646 18.8221 7.46182 18.7533 7.474 18.6812C7.48619 18.6092 7.48495 18.5352 7.47036 18.4636C7.45577 18.3921 7.42813 18.3244 7.38902 18.2643C7.34991 18.2043 7.30012 18.1532 7.24252 18.114L5.66806 17.0189C5.59705 16.9696 5.51581 16.9397 5.43151 16.9319C5.34721 16.9242 5.26243 16.9388 5.18464 16.9746C5.10684 17.0103 5.03842 17.066 4.98538 17.1368C4.93235 17.2076 4.89634 17.2913 4.88052 17.3806L4.4931 19.568C4.47888 19.6482 4.48134 19.7307 4.50028 19.8098C4.51923 19.8888 4.55419 19.9624 4.60269 20.0253C4.65118 20.0882 4.712 20.1387 4.78081 20.1734C4.84961 20.2081 4.9247 20.226 5.00071 20.226C5.12076 20.2258 5.23701 20.1807 5.32944 20.0984C5.42187 20.0161 5.48472 19.9018 5.50716 19.7751L5.56761 19.4338C5.96088 20.25 6.46884 20.9963 7.07361 21.6465C7.88561 22.5186 8.83484 23.1883 9.89503 23.6368Z" fill="black"/>
</svg>
