<svg width="24" height="24" viewBox="0 0 24 24" fill="none" xmlns="http://www.w3.org/2000/svg">
<path d="M12 21.6499C11.69 21.6499 11.39 21.6099 11.14 21.5199C7.32 20.2099 1.25 15.5599 1.25 8.68985C1.25 5.18985 4.08 2.34985 7.56 2.34985C9.25 2.34985 10.83 3.00985 12 4.18985C13.17 3.00985 14.75 2.34985 16.44 2.34985C19.92 2.34985 22.75 5.19985 22.75 8.68985C22.75 15.5699 16.68 20.2099 12.86 21.5199C12.61 21.6099 12.31 21.6499 12 21.6499ZM7.56 3.84985C4.91 3.84985 2.75 6.01985 2.75 8.68985C2.75 15.5199 9.32 19.3199 11.63 20.1099C11.81 20.1699 12.2 20.1699 12.38 20.1099C14.68 19.3199 21.26 15.5299 21.26 8.68985C21.26 6.01985 19.1 3.84985 16.45 3.84985C14.93 3.84985 13.52 4.55985 12.61 5.78985C12.33 6.16985 11.69 6.16985 11.41 5.78985C10.48 4.54985 9.08 3.84985 7.56 3.84985Z" fill="#292D32"/>
</svg>
