<svg width="32" height="32" viewBox="0 0 32 32" fill="none" xmlns="http://www.w3.org/2000/svg">
<g clip-path="url(#clip0_2225_1205)">
<path d="M16 0C7.16353 0 0 7.16353 0 16C0 24.8365 7.16353 32 16 32C24.8365 32 32 24.8365 32 16C31.9901 7.16773 24.8323 0.00986667 16 0ZM29.8377 21.6052L25.2875 22.3903C25.8083 20.4803 26.0895 18.5128 26.1247 16.5333H30.92C30.8598 18.2744 30.4935 19.9912 29.8377 21.6052H29.8377ZM1.08 16.5333H5.87533C5.91052 18.5128 6.19177 20.4803 6.7126 22.3903L2.16233 21.6052C1.50652 19.9913 1.14012 18.2744 1.07993 16.5333H1.08ZM2.16233 10.3948L6.7126 9.60967C6.19172 11.5197 5.91043 13.4872 5.8752 15.4667H1.08C1.14017 13.7256 1.50654 12.0088 2.16233 10.3948ZM16.5333 8.56327C18.4499 8.5877 20.3615 8.76228 22.2508 9.0854L24.1333 9.41013C24.7117 11.3784 25.0229 13.4155 25.0586 15.4667H16.5333V8.56327ZM22.4325 8.03413C20.4832 7.70094 18.5108 7.52121 16.5333 7.4966V1.0966C19.5909 1.39033 22.2469 4.18987 23.7521 8.26407L22.4325 8.03413ZM15.4667 7.4966C13.4894 7.52121 11.5171 7.70094 9.568 8.03413L8.24793 8.26247C9.75313 4.18733 12.4091 1.3868 15.4667 1.09433V7.4966ZM9.74973 9.0854C11.6388 8.76229 13.5503 8.58774 15.4667 8.56333V15.4667H6.9414C6.97706 13.4155 7.28827 11.3784 7.86667 9.41013L9.74973 9.0854ZM6.9414 16.5333H15.4667V23.4367C13.5501 23.4123 11.6385 23.2377 9.7492 22.9146L7.86667 22.5899C7.28827 20.6216 6.97706 18.5845 6.9414 16.5333ZM9.5674 23.9659C11.5167 24.2995 13.4892 24.4802 15.4667 24.5063V30.9063C12.4091 30.6123 9.75313 27.8127 8.24793 23.7385L9.5674 23.9659ZM16.5333 24.5063C18.5106 24.4802 20.4829 24.2995 22.432 23.9659L23.7521 23.7375C22.2469 27.8127 19.5909 30.6133 16.5333 30.9057V24.5063ZM22.2503 22.9146C20.3612 23.2377 18.4497 23.4123 16.5333 23.4367V16.5333H25.0586C25.0229 18.5845 24.7117 20.6216 24.1333 22.5899L22.2503 22.9146ZM26.1247 15.4667C26.0895 13.4872 25.8083 11.5197 25.2875 9.60967L29.8377 10.3948C30.4935 12.0087 30.8599 13.7256 30.9201 15.4667H26.1247ZM29.2981 9.21933L24.9365 8.46667C24.1524 5.90851 22.6853 3.61272 20.6932 1.82653C24.4185 3.06968 27.5079 5.72388 29.2982 9.21933H29.2981ZM11.3068 1.82647C9.31468 3.61267 7.8476 5.90849 7.06353 8.46667L2.7018 9.21933C4.49207 5.72385 7.58148 3.06963 11.3068 1.82647ZM2.7018 22.7807L7.06353 23.5333C7.84761 26.0915 9.3147 28.3873 11.3068 30.1735C7.58149 28.9303 4.49209 26.2761 2.7018 22.7807V22.7807ZM20.6932 30.1733C22.6853 28.3872 24.1524 26.0914 24.9365 23.5333L29.2982 22.7807C27.5079 26.2761 24.4185 28.9303 20.6932 30.1735V30.1733Z" fill="black"/>
</g>
<defs>
<clipPath id="clip0_2225_1205">
<rect width="32" height="32" fill="white"/>
</clipPath>
</defs>
</svg>
