<svg width="24" height="24" viewBox="0 0 24 24" fill="none" xmlns="http://www.w3.org/2000/svg">
<path d="M12.5002 14.7499H10.0002C9.59024 14.7499 9.25024 14.4099 9.25024 13.9999C9.25024 13.5899 9.59024 13.2499 10.0002 13.2499H12.5002C15.1202 13.2499 17.2502 11.1199 17.2502 8.49988C17.2502 5.87988 15.1202 3.74988 12.5002 3.74988H7.50024C4.88024 3.74988 2.75024 5.87988 2.75024 8.49988C2.75024 9.59988 3.14023 10.6699 3.84023 11.5199C4.10023 11.8399 4.06023 12.3099 3.74023 12.5799C3.42023 12.8399 2.95024 12.7999 2.68024 12.4799C1.75024 11.3599 1.24023 9.94988 1.24023 8.49988C1.24023 5.04988 4.04023 2.24988 7.49023 2.24988H12.4902C15.9402 2.24988 18.7402 5.04988 18.7402 8.49988C18.7402 11.9499 15.9502 14.7499 12.5002 14.7499Z" fill="#292D32"/>
<path d="M16.5 21.7499H11.5C8.05 21.7499 5.25 18.9499 5.25 15.4999C5.25 12.0499 8.05 9.24988 11.5 9.24988H14C14.41 9.24988 14.75 9.58988 14.75 9.99988C14.75 10.4099 14.41 10.7499 14 10.7499H11.5C8.88 10.7499 6.75 12.8799 6.75 15.4999C6.75 18.1199 8.88 20.2499 11.5 20.2499H16.5C19.12 20.2499 21.25 18.1199 21.25 15.4999C21.25 14.3999 20.86 13.3299 20.16 12.4799C19.9 12.1599 19.94 11.6899 20.26 11.4199C20.58 11.1499 21.05 11.1999 21.32 11.5199C22.25 12.6399 22.76 14.0499 22.76 15.4999C22.75 18.9499 19.95 21.7499 16.5 21.7499Z" fill="#292D32"/>
</svg>
