<svg width="39" height="13" viewBox="0 0 39 13" fill="none" xmlns="http://www.w3.org/2000/svg">
<path d="M11.544 0.927999V12H10.088V3.744L6.408 12H5.384L1.688 3.728V12H0.232V0.927999H1.8L5.896 10.08L9.992 0.927999H11.544ZM17.8373 12.144C17.0159 12.144 16.2693 11.9573 15.5973 11.584C14.9359 11.2107 14.4133 10.6827 14.0293 10C13.6559 9.30667 13.4693 8.50667 13.4693 7.6C13.4693 6.704 13.6613 5.91467 14.0453 5.232C14.4399 4.53867 14.9733 4.01067 15.6453 3.648C16.3173 3.27467 17.0693 3.088 17.9013 3.088C18.7333 3.088 19.4853 3.27467 20.1573 3.648C20.8293 4.01067 21.3573 4.53333 21.7413 5.216C22.1359 5.89867 22.3333 6.69333 22.3333 7.6C22.3333 8.50667 22.1306 9.30667 21.7253 10C21.3306 10.6827 20.7919 11.2107 20.1093 11.584C19.4266 11.9573 18.6693 12.144 17.8373 12.144ZM17.8373 10.864C18.3599 10.864 18.8506 10.7413 19.3093 10.496C19.7679 10.2507 20.1359 9.88267 20.4133 9.392C20.7013 8.90133 20.8453 8.304 20.8453 7.6C20.8453 6.896 20.7066 6.29867 20.4293 5.808C20.1519 5.31733 19.7893 4.95467 19.3413 4.72C18.8933 4.47467 18.4079 4.352 17.8853 4.352C17.3519 4.352 16.8613 4.47467 16.4133 4.72C15.9759 4.95467 15.6239 5.31733 15.3573 5.808C15.0906 6.29867 14.9573 6.896 14.9573 7.6C14.9573 8.31467 15.0853 8.91733 15.3413 9.408C15.6079 9.89867 15.9599 10.2667 16.3973 10.512C16.8346 10.7467 17.3146 10.864 17.8373 10.864ZM25.7036 4.656C25.9596 4.15467 26.3223 3.76533 26.7916 3.488C27.2716 3.21067 27.853 3.072 28.5356 3.072V4.576H28.1516C26.5196 4.576 25.7036 5.46133 25.7036 7.232V12H24.2476V3.232H25.7036V4.656ZM38.2164 7.28C38.2164 7.55733 38.2004 7.85067 38.1684 8.16H31.1604C31.2137 9.024 31.507 9.70133 32.0404 10.192C32.5844 10.672 33.2404 10.912 34.0084 10.912C34.6377 10.912 35.1604 10.768 35.5764 10.48C36.003 10.1813 36.3017 9.78667 36.4724 9.296H38.0404C37.8057 10.1387 37.3364 10.8267 36.6324 11.36C35.9284 11.8827 35.0537 12.144 34.0084 12.144C33.1764 12.144 32.4297 11.9573 31.7684 11.584C31.1177 11.2107 30.6057 10.6827 30.2324 10C29.859 9.30667 29.6724 8.50667 29.6724 7.6C29.6724 6.69333 29.8537 5.89867 30.2164 5.216C30.579 4.53333 31.0857 4.01067 31.7364 3.648C32.3977 3.27467 33.155 3.088 34.0084 3.088C34.8404 3.088 35.5764 3.26933 36.2164 3.632C36.8564 3.99467 37.347 4.496 37.6884 5.136C38.0404 5.76533 38.2164 6.48 38.2164 7.28ZM36.7124 6.976C36.7124 6.42133 36.5897 5.94667 36.3444 5.552C36.099 5.14667 35.763 4.84267 35.3364 4.64C34.9204 4.42667 34.4564 4.32 33.9444 4.32C33.2084 4.32 32.579 4.55467 32.0564 5.024C31.5444 5.49333 31.251 6.144 31.1764 6.976H36.7124Z" fill="#228CDB"/>
</svg>
