<svg width="20" height="20" viewBox="0 0 20 20" fill="none" xmlns="http://www.w3.org/2000/svg">
<path d="M9.99935 1.66663C7.81602 1.66663 6.04102 3.44163 6.04102 5.62496C6.04102 7.76663 7.71602 9.49996 9.89935 9.57496C9.96602 9.56663 10.0327 9.56663 10.0827 9.57496C10.0993 9.57496 10.1077 9.57496 10.1243 9.57496C10.1327 9.57496 10.1327 9.57496 10.141 9.57496C12.2743 9.49996 13.9493 7.76663 13.9577 5.62496C13.9577 3.44163 12.1827 1.66663 9.99935 1.66663Z" fill="white"/>
<path d="M14.2328 11.7917C11.9078 10.2417 8.11615 10.2417 5.77448 11.7917C4.71615 12.5 4.13281 13.4583 4.13281 14.4833C4.13281 15.5083 4.71615 16.4583 5.76615 17.1583C6.93281 17.9417 8.46615 18.3333 9.99948 18.3333C11.5328 18.3333 13.0661 17.9417 14.2328 17.1583C15.2828 16.45 15.8661 15.5 15.8661 14.4667C15.8578 13.4417 15.2828 12.4917 14.2328 11.7917ZM11.6661 15.1083H10.6245V16.15C10.6245 16.4917 10.3411 16.775 9.99948 16.775C9.65781 16.775 9.37448 16.4917 9.37448 16.15V15.1083H8.33281C7.99115 15.1083 7.70781 14.825 7.70781 14.4833C7.70781 14.1417 7.99115 13.8583 8.33281 13.8583H9.37448V12.8167C9.37448 12.475 9.65781 12.1917 9.99948 12.1917C10.3411 12.1917 10.6245 12.475 10.6245 12.8167V13.8583H11.6661C12.0078 13.8583 12.2911 14.1417 12.2911 14.4833C12.2911 14.825 12.0078 15.1083 11.6661 15.1083Z" fill="white"/>
</svg>
