<svg width="32" height="32" viewBox="0 0 32 32" fill="none" xmlns="http://www.w3.org/2000/svg">
<path d="M14.0318 31.9238C11.1781 31.5533 8.24029 30.3278 6.10047 28.6127C1.28286 24.7641 -0.903959 18.6837 0.345939 12.6454C0.881895 10.0382 2.27778 7.29486 4.06463 5.31846C5.38092 3.83516 6.96829 2.61752 8.74125 1.7311C11.0951 0.536652 13.3449 0 16.0007 0C17.9065 0 19.4384 0.250304 21.1932 0.850032C23.4986 1.64184 25.5931 2.95021 27.3169 4.67541C29.0408 6.40062 30.3485 8.49712 31.1404 10.8051C32.0783 13.5585 32.2493 16.489 31.6504 19.3936C31.1714 21.6883 29.9365 24.2695 28.4166 26.1357C27.7917 26.9077 26.3538 28.2843 25.5989 28.842C23.3404 30.5216 20.6842 31.5836 17.8915 31.9238C17.0686 32.0279 14.8278 32.0229 14.0318 31.9238ZM18.3915 30.5841C22.2894 29.93 25.7683 27.7522 28.0627 24.5298C30.7654 20.7282 31.4894 15.628 29.9635 11.1806C29.6045 10.1373 28.7136 8.3962 28.0627 7.47808C27.3387 6.45083 25.5469 4.65165 24.516 3.92677C23.516 3.21791 21.8132 2.35686 20.6513 1.9764C18.5539 1.27869 16.3268 1.06176 14.1345 1.34164C11.9422 1.62151 9.84072 2.39104 7.98531 3.59336C6.23963 4.74158 4.7474 6.23575 3.60067 7.9837C2.40021 9.84051 1.63183 11.9437 1.35232 14.1379C1.0728 16.332 1.2893 18.561 1.9858 20.6601C2.37077 21.8225 3.2307 23.5336 3.93364 24.5348C4.66258 25.562 6.45444 27.3612 7.48035 28.0861C8.40228 28.7329 10.1361 29.624 11.1781 29.9894C13.4971 30.7783 15.9747 30.9826 18.3915 30.5841ZM12.8499 25.2126C12.1023 25.0998 11.3851 24.8372 10.7411 24.4407C10.1631 24.0702 5.79849 19.789 5.58551 19.3875C5.34053 18.929 5.76749 18.094 6.37744 17.8387L6.66342 17.7185L5.78349 16.8214C5.29953 16.3258 4.84057 15.7992 4.76758 15.653C4.59559 15.3196 4.59059 14.6047 4.75158 14.2864C4.81957 14.1562 4.98056 13.958 5.10555 13.8478C5.31953 13.6706 5.33953 13.6075 5.31953 13.159C5.29353 12.7625 5.32953 12.6063 5.50152 12.3089C5.7515 11.8814 6.26745 11.5941 6.77241 11.5891C7.05339 11.5891 7.12638 11.553 7.24637 11.3438C7.55935 10.7961 8.45427 10.5979 9.13722 10.9323L9.50719 11.1095L9.68917 10.9323C9.93915 10.703 10.4391 10.4998 10.7671 10.4998C11.423 10.4998 12.35 11.2557 12.35 11.7873C12.35 12.4231 11.772 12.5332 11.199 12.0066C10.8191 11.6522 10.6261 11.6151 10.4701 11.8654C10.3921 11.9856 10.5791 12.2098 11.699 13.3412C12.8189 14.4676 13.0219 14.7079 13.0219 14.9211C13.013 15.0846 12.9435 15.2389 12.827 15.3537C12.7105 15.4685 12.5553 15.5356 12.392 15.5419C12.189 15.5419 11.856 15.2495 10.3191 13.7167C8.75125 12.1518 8.46527 11.9015 8.34028 11.9806C8.00131 12.1948 8.1163 12.351 9.94915 14.1912C10.9441 15.1925 11.762 16.0785 11.762 16.1626C11.762 16.3348 11.606 16.6532 11.476 16.7363C11.3694 16.7832 11.2534 16.8048 11.1371 16.7994C10.9231 16.8044 10.5951 16.507 8.85124 14.7659C7.10139 13.0238 6.78841 12.7425 6.66342 12.8206C6.31945 13.0398 6.43444 13.191 8.42928 15.1985C9.51819 16.2888 10.4291 17.264 10.4551 17.3681C10.5121 17.5563 10.3871 17.8847 10.2211 17.9989C10.111 18.0458 9.99173 18.0673 9.87216 18.0619C9.65818 18.0619 9.3882 17.8277 7.94532 16.3829C6.55443 14.9902 6.23146 14.7039 6.05447 14.7199C5.55451 14.7769 5.7315 15.0012 8.31429 17.5934C10.5541 19.8411 10.8401 20.1595 10.8401 20.3938C10.8423 20.4798 10.823 20.565 10.7839 20.6416C10.7448 20.7182 10.6871 20.7838 10.6161 20.8323C10.2151 21.1507 10.0591 21.0776 9.04823 20.0974C8.53227 19.6018 8.00131 19.1222 7.86032 19.0331C7.60534 18.8769 6.9594 18.8088 6.83941 18.934C6.79741 18.97 7.75033 19.9773 8.95423 21.1707C10.9591 23.1571 11.188 23.3614 11.777 23.6427C12.3196 23.9132 12.9171 24.0549 13.5232 24.0566C14.1293 24.0583 14.7276 23.9201 15.2717 23.6527C16.9536 22.8497 17.8865 20.8994 17.4275 19.1312C17.1986 18.2502 16.9116 17.8277 15.7557 16.6332C14.4228 15.2665 14.1148 14.8911 13.7868 14.2343C13.4219 13.4994 13.2659 12.7845 13.2659 11.8924C13.2659 10.9273 13.3649 10.4897 13.7918 9.58764C14.1978 8.7276 15.0467 7.8255 15.8857 7.36094C17.5315 6.44282 19.6984 6.52092 21.2702 7.54917C21.5832 7.75241 22.7131 8.81671 24.119 10.2294C26.2078 12.326 26.4468 12.5973 26.4468 12.8366C26.4468 13.4053 25.9828 14.036 25.4679 14.1662C25.2749 14.2183 25.3119 14.2703 26.1868 15.1624C26.6968 15.679 27.1707 16.2367 27.2437 16.4089C27.4887 16.9986 27.3787 17.5713 26.9308 18.0409C26.7018 18.2812 26.6708 18.3643 26.6648 18.8439C26.6598 19.2664 26.6128 19.4436 26.4458 19.6839C26.3139 19.8794 26.1373 20.0405 25.9307 20.1539C25.7241 20.2672 25.4934 20.3296 25.2579 20.3357C24.9349 20.3357 24.8729 20.3667 24.7109 20.612C24.346 21.1757 23.398 21.373 22.7841 21.0085L22.4771 20.8263L22.2581 21.0406C21.7742 21.5051 20.9922 21.5672 20.3993 21.1867C19.9203 20.8844 19.5664 20.4618 19.5664 20.1955C19.5664 19.9612 19.9053 19.5748 20.1133 19.5748C20.3113 19.5748 20.5773 19.731 20.8793 20.0133C21.1812 20.2997 21.4422 20.2997 21.4832 20.0083C21.5042 19.8521 21.2542 19.5547 20.2433 18.5375C19.1804 17.4632 18.9774 17.2179 18.9774 17.0097C18.975 16.8934 18.9965 16.7779 19.0404 16.6702C19.1554 16.498 19.4784 16.3779 19.6754 16.43C19.7793 16.456 20.6593 17.27 21.6232 18.2341C22.5921 19.2043 23.441 19.9963 23.519 19.9963C23.733 19.9963 23.873 19.782 23.774 19.5998C23.727 19.5167 22.9091 18.6767 21.9612 17.7275C20.4773 16.2467 20.2373 15.9704 20.2373 15.7511C20.2324 15.6331 20.254 15.5154 20.3003 15.4067C20.3893 15.2766 20.7013 15.1204 20.8783 15.1204C20.9562 15.1204 21.9352 16.0325 23.0551 17.1488C25.1069 19.1933 25.2579 19.3074 25.4719 18.969C25.5499 18.8439 25.2689 18.5255 23.529 16.7784C21.7322 14.9742 21.4932 14.7029 21.4932 14.4686C21.4932 14.3074 21.5662 14.1402 21.6812 14.036C22.0612 13.6766 22.1761 13.7497 24.025 15.5899C25.7749 17.3371 25.9308 17.4512 26.1448 17.1178C26.2228 16.9926 25.8688 16.6072 23.697 14.4265C21.3322 12.0486 21.1612 11.8554 21.1612 11.5791C21.1612 11.1616 21.4012 10.9633 21.8642 10.9954C21.9472 11.0004 22.4471 11.4229 22.9631 11.9285C23.484 12.4341 24.046 12.9087 24.213 12.9818C24.541 13.1169 24.9209 13.138 25.0829 13.0338C25.2389 12.9347 20.9163 8.67454 20.3543 8.37717C19.8725 8.11678 19.3425 7.95787 18.7971 7.91024C18.2516 7.86261 17.7022 7.92726 17.1826 8.1002C16.663 8.27315 16.1843 8.55074 15.7759 8.91588C15.3675 9.28103 15.038 9.726 14.8078 10.2234C14.5368 10.8021 14.5008 10.9743 14.4638 11.7202C14.4328 12.4241 14.4588 12.6434 14.6098 13.0919C14.8807 13.8899 15.1147 14.2183 16.3286 15.4598C17.6415 16.8054 17.8915 17.1128 18.2245 17.8327C19.1624 19.8351 18.7664 22.1509 17.2196 23.6938C16.0427 24.8772 14.4388 25.4309 12.8499 25.2126Z" fill="black"/>
</svg>
