<svg width="24" height="24" viewBox="0 0 24 24" fill="none" xmlns="http://www.w3.org/2000/svg">
<path d="M12 12.7499C8.83 12.7499 6.25 10.1699 6.25 6.99988C6.25 3.82988 8.83 1.24988 12 1.24988C15.17 1.24988 17.75 3.82988 17.75 6.99988C17.75 10.1699 15.17 12.7499 12 12.7499ZM12 2.74988C9.66 2.74988 7.75 4.65988 7.75 6.99988C7.75 9.33988 9.66 11.2499 12 11.2499C14.34 11.2499 16.25 9.33988 16.25 6.99988C16.25 4.65988 14.34 2.74988 12 2.74988Z" fill="#292D32"/>
<path d="M3.41016 22.7499C3.00016 22.7499 2.66016 22.4099 2.66016 21.9999C2.66016 17.7299 6.85015 14.2499 12.0002 14.2499C13.0102 14.2499 14.0001 14.3799 14.9601 14.6499C15.3601 14.7599 15.5902 15.1699 15.4802 15.5699C15.3702 15.9699 14.9601 16.1999 14.5602 16.0899C13.7402 15.8599 12.8802 15.7499 12.0002 15.7499C7.68015 15.7499 4.16016 18.5499 4.16016 21.9999C4.16016 22.4099 3.82016 22.7499 3.41016 22.7499Z" fill="#292D32"/>
<path d="M18 22.7499C16.82 22.7499 15.7 22.3099 14.83 21.5199C14.48 21.2199 14.17 20.8499 13.93 20.4399C13.49 19.7199 13.25 18.8699 13.25 17.9999C13.25 16.7499 13.73 15.5799 14.59 14.6899C15.49 13.7599 16.7 13.2499 18 13.2499C19.36 13.2499 20.65 13.8299 21.53 14.8299C22.31 15.6999 22.75 16.8199 22.75 17.9999C22.75 18.3799 22.7 18.7599 22.6 19.1199C22.5 19.5699 22.31 20.0399 22.05 20.4499C21.22 21.8699 19.66 22.7499 18 22.7499ZM18 14.7499C17.11 14.7499 16.29 15.0999 15.67 15.7299C15.08 16.3399 14.75 17.1399 14.75 17.9999C14.75 18.5899 14.91 19.1699 15.22 19.6699C15.38 19.9499 15.59 20.1999 15.83 20.4099C16.43 20.9599 17.2 21.2599 18 21.2599C19.13 21.2599 20.2 20.6599 20.78 19.6899C20.95 19.4099 21.08 19.0899 21.15 18.7799C21.22 18.5199 21.25 18.2699 21.25 18.0099C21.25 17.2099 20.95 16.4399 20.41 15.8399C19.81 15.1399 18.93 14.7499 18 14.7499Z" fill="#292D32"/>
<path d="M19.4998 18.7299H16.5098C16.0998 18.7299 15.7598 18.3899 15.7598 17.9799C15.7598 17.5699 16.0998 17.2299 16.5098 17.2299H19.4998C19.9098 17.2299 20.2498 17.5699 20.2498 17.9799C20.2498 18.3899 19.9098 18.7299 19.4998 18.7299Z" fill="#292D32"/>
<path d="M18 20.2599C17.59 20.2599 17.25 19.9199 17.25 19.5099V16.5199C17.25 16.1099 17.59 15.7699 18 15.7699C18.41 15.7699 18.75 16.1099 18.75 16.5199V19.5099C18.75 19.9299 18.41 20.2599 18 20.2599Z" fill="#292D32"/>
</svg>
