<svg width="48" height="48" viewBox="0 0 48 48" fill="none" xmlns="http://www.w3.org/2000/svg">
<rect width="48" height="48" rx="12" fill="white"/>
<g clip-path="url(#clip0_2720_1776)">
<path d="M21.5428 22.424C22.0967 21.5619 22.413 20.5333 22.3947 19.4306C22.3457 16.4797 19.8899 14.1348 16.9386 14.1348H8.69885C8.31292 14.1348 8 14.4477 8 14.8336V32.9537C8 33.3397 8.31292 33.6526 8.69885 33.6526H17.9029C21.3191 33.6526 24.1489 30.9146 24.1629 27.4984C24.1715 25.4048 23.1332 23.5486 21.5428 22.424ZM11.6148 17.7496H17.0089C17.9858 17.7496 18.7806 18.5443 18.7806 19.5213C18.7806 20.4981 17.9859 21.293 17.0089 21.293H11.6148V17.7496ZM17.9832 30.0378H11.6148V24.9078H17.9831C19.3975 24.9078 20.5481 26.0585 20.5481 27.4728C20.5481 28.8871 19.3975 30.0378 17.9832 30.0378ZM40 26.2134C40 21.9941 36.6745 18.5616 32.5869 18.5616C28.4992 18.5616 25.1737 21.9942 25.1737 26.2134C25.1737 30.4326 28.4993 33.8653 32.5869 33.8653C35.0672 33.8653 37.3719 32.5938 38.752 30.464C38.9246 30.1975 39.0806 29.9207 39.2191 29.635C39.3197 29.4274 39.167 29.1858 38.9362 29.1853L35.2922 29.1762C35.2115 29.176 35.1351 29.209 35.0773 29.2651C34.3892 29.9342 33.5456 30.2505 32.5869 30.2505C30.7759 30.2505 29.2578 28.896 28.8799 27.0903H39.2746C39.6752 27.0903 40 26.7655 40 26.3648V26.2134ZM32.5869 22.1764C33.9132 22.1764 35.0823 22.9032 35.7619 24.0013H29.412C30.0915 22.9032 31.2606 22.1764 32.5869 22.1764ZM35.6672 17.6634H29.0921C28.9448 17.6634 28.8035 17.6048 28.6993 17.5007C28.5952 17.3965 28.5366 17.2552 28.5366 17.1079V15.4584C28.5366 15.3111 28.5952 15.1698 28.6993 15.0656C28.8035 14.9615 28.9448 14.9029 29.0921 14.9029H35.6672C35.7402 14.9029 35.8124 14.9173 35.8798 14.9452C35.9472 14.9731 36.0084 15.014 36.06 15.0656C36.1116 15.1172 36.1525 15.1784 36.1804 15.2458C36.2083 15.3132 36.2227 15.3855 36.2227 15.4584V17.1079C36.2227 17.1808 36.2083 17.2531 36.1804 17.3205C36.1525 17.3879 36.1116 17.4491 36.06 17.5007C36.0084 17.5523 35.9472 17.5932 35.8798 17.6211C35.8124 17.649 35.7402 17.6634 35.6672 17.6634Z" fill="#0067FF"/>
</g>
<defs>
<clipPath id="clip0_2720_1776">
<rect width="32" height="32" fill="white" transform="translate(8 8)"/>
</clipPath>
</defs>
</svg>
