<svg width="48" height="48" viewBox="0 0 48 48" fill="none" xmlns="http://www.w3.org/2000/svg">
<rect width="48" height="48" rx="12" fill="#F4F4F4"/>
<g clip-path="url(#clip0_2720_1771)">
<rect width="32" height="32" transform="translate(8 8)" fill="#F4F4F4"/>
<path d="M24 8C15.163 8 8 15.164 8 24C8 32.836 15.163 39.9999 24 39.9999C32.837 39.9999 40 32.8359 40 23.9999C40 15.1639 32.8369 8 24 8ZM34.4989 15.744C36.2188 17.928 37.2719 20.6559 37.3548 23.6249C33.7649 22.9959 30.6689 22.9769 27.9938 23.4009C27.6618 22.638 27.3131 21.8825 26.9479 21.1349C29.8169 19.955 32.3899 18.2339 34.4989 15.744ZM32.6579 13.832C30.7739 16.119 28.4088 17.6929 25.7329 18.764C24.0199 15.5901 22.258 12.945 20.85 11.014C21.8807 10.762 22.9379 10.6348 23.999 10.6351C27.3019 10.634 30.3239 11.8409 32.6579 13.832ZM18.255 11.935C19.616 13.7519 21.427 16.3839 23.198 19.6109C19.4441 20.6419 15.245 20.92 10.995 20.9319C11.933 16.956 14.6469 13.66 18.255 11.935ZM10.6359 23.9988L10.6469 23.5668H10.7189C15.4809 23.5668 20.2088 23.2548 24.4478 22.0058C24.77 22.6608 25.0804 23.3216 25.3789 23.9878C19.8019 25.6228 16.3249 29.2928 13.9419 32.7847C11.886 30.4359 10.6359 27.3609 10.6359 23.9988ZM15.8899 34.6109C18.1459 31.213 21.2899 27.8509 26.4059 26.4389C27.6009 29.5009 28.5759 32.8428 29.092 36.3528C27.522 37.0049 25.803 37.3648 24.001 37.3648C20.9519 37.3648 18.14 36.3379 15.8899 34.6109ZM31.55 35.021C31.0029 31.8139 30.1069 28.755 29.0279 25.919C31.366 25.622 34.0539 25.694 37.1698 26.267C36.5469 29.8888 34.4649 33.0179 31.55 35.021Z" fill="#EA4C89"/>
</g>
<defs>
<clipPath id="clip0_2720_1771">
<rect width="32" height="32" fill="white" transform="translate(8 8)"/>
</clipPath>
</defs>
</svg>
