<svg width="16" height="17" viewBox="0 0 16 17" fill="none" xmlns="http://www.w3.org/2000/svg">
<path d="M8.6663 8.33341C8.53964 8.33341 8.41297 8.28674 8.31297 8.18674C8.11964 7.99341 8.11964 7.67341 8.31297 7.48008L13.7796 2.01341C13.973 1.82007 14.293 1.82007 14.4863 2.01341C14.6796 2.20674 14.6796 2.52674 14.4863 2.72007L9.01964 8.18674C8.91964 8.28674 8.79297 8.33341 8.6663 8.33341Z" fill="#228CDB"/>
<path d="M14.6668 5.53325C14.3935 5.53325 14.1668 5.30659 14.1668 5.03325V2.33325H11.4668C11.1935 2.33325 10.9668 2.10659 10.9668 1.83325C10.9668 1.55992 11.1935 1.33325 11.4668 1.33325H14.6668C14.9401 1.33325 15.1668 1.55992 15.1668 1.83325V5.03325C15.1668 5.30659 14.9401 5.53325 14.6668 5.53325Z" fill="#228CDB"/>
<path d="M10.0007 15.6666H6.00065C2.38065 15.6666 0.833984 14.1199 0.833984 10.4999V6.49992C0.833984 2.87992 2.38065 1.33325 6.00065 1.33325H7.33398C7.60732 1.33325 7.83398 1.55992 7.83398 1.83325C7.83398 2.10659 7.60732 2.33325 7.33398 2.33325H6.00065C2.92732 2.33325 1.83398 3.42659 1.83398 6.49992V10.4999C1.83398 13.5733 2.92732 14.6666 6.00065 14.6666H10.0007C13.074 14.6666 14.1673 13.5733 14.1673 10.4999V9.16659C14.1673 8.89325 14.394 8.66659 14.6673 8.66659C14.9407 8.66659 15.1673 8.89325 15.1673 9.16659V10.4999C15.1673 14.1199 13.6207 15.6666 10.0007 15.6666Z" fill="#228CDB"/>
</svg>
