<svg width="19" height="19" viewBox="0 0 19 19" fill="none" xmlns="http://www.w3.org/2000/svg">
<path d="M1 17.67V15.8178C1 14.8353 1.39029 13.8931 2.08501 13.1983C2.77972 12.5036 3.72196 12.1133 4.70444 12.1133H8.40889C9.39137 12.1133 10.3336 12.5036 11.0283 13.1983C11.723 13.8931 12.1133 14.8353 12.1133 15.8178V17.67M13.0394 1.12039C13.8363 1.32442 14.5426 1.78784 15.0469 2.43761C15.5513 3.08738 15.825 3.88653 15.825 4.70908C15.825 5.53162 15.5513 6.33077 15.0469 6.98054C14.5426 7.63031 13.8363 8.09373 13.0394 8.29776M17.67 17.67V15.8178C17.6653 15.0002 17.3902 14.2071 16.8877 13.5621C16.3851 12.9172 15.6833 12.4566 14.8917 12.2522M2.85222 4.70444C2.85222 5.68692 3.24251 6.62916 3.93723 7.32388C4.63195 8.0186 5.57419 8.40889 6.55667 8.40889C7.53915 8.40889 8.48139 8.0186 9.1761 7.32388C9.87082 6.62916 10.2611 5.68692 10.2611 4.70444C10.2611 3.72196 9.87082 2.77972 9.1761 2.08501C8.48139 1.39029 7.53915 1 6.55667 1C5.57419 1 4.63195 1.39029 3.93723 2.08501C3.24251 2.77972 2.85222 3.72196 2.85222 4.70444Z" stroke="#313131" stroke-width="2" stroke-linecap="round" stroke-linejoin="round"/>
</svg>
