<svg width="32" height="32" viewBox="0 0 32 32" fill="none" xmlns="http://www.w3.org/2000/svg">
<g clip-path="url(#clip0_2813_1431)">
<path d="M23.3327 32.0001C18.554 32.0001 14.666 28.1121 14.666 23.3334C14.666 18.5547 18.554 14.6667 23.3327 14.6667C28.1113 14.6667 31.9993 18.5547 31.9993 23.3334C31.9993 28.1121 28.1113 32.0001 23.3327 32.0001ZM23.3327 16.0001C19.2887 16.0001 15.9993 19.2907 15.9993 23.3334C15.9993 27.3761 19.2887 30.6667 23.3327 30.6667C27.3767 30.6667 30.666 27.3761 30.666 23.3334C30.666 19.2907 27.3767 16.0001 23.3327 16.0001Z" fill="#228CDB"/>
<path d="M23.3327 27.9999C23.1559 27.9999 22.9863 27.9297 22.8613 27.8047C22.7363 27.6796 22.666 27.5101 22.666 27.3333V21.9999C22.666 21.8231 22.7363 21.6535 22.8613 21.5285C22.9863 21.4035 23.1559 21.3333 23.3327 21.3333C23.5095 21.3333 23.6791 21.4035 23.8041 21.5285C23.9291 21.6535 23.9993 21.8231 23.9993 21.9999V27.3333C23.9993 27.5101 23.9291 27.6796 23.8041 27.8047C23.6791 27.9297 23.5095 27.9999 23.3327 27.9999Z" fill="#228CDB"/>
<path d="M23.3327 20.0001C23.7009 20.0001 23.9993 19.7016 23.9993 19.3334C23.9993 18.9652 23.7009 18.6667 23.3327 18.6667C22.9645 18.6667 22.666 18.9652 22.666 19.3334C22.666 19.7016 22.9645 20.0001 23.3327 20.0001Z" fill="#228CDB"/>
<path d="M12.6667 28H3.33333C2.4496 27.9989 1.60237 27.6474 0.97748 27.0225C0.352588 26.3976 0.00105857 25.5504 0 24.6667L0 7.33333C0 5.49467 1.496 4 3.33333 4H6C6.17681 4 6.34638 4.07024 6.4714 4.19526C6.59643 4.32029 6.66667 4.48986 6.66667 4.66667C6.66667 4.84348 6.59643 5.01305 6.4714 5.13807C6.34638 5.2631 6.17681 5.33333 6 5.33333H3.33333C2.23067 5.33333 1.33333 6.23067 1.33333 7.33333V24.6667C1.33333 25.7693 2.23067 26.6667 3.33333 26.6667H12.6667C12.8435 26.6667 13.013 26.7369 13.1381 26.8619C13.2631 26.987 13.3333 27.1565 13.3333 27.3333C13.3333 27.5101 13.2631 27.6797 13.1381 27.8047C13.013 27.9298 12.8435 28 12.6667 28Z" fill="#228CDB"/>
<path d="M15.3333 8H7.33333C6.23067 8 5.33333 7.10267 5.33333 6V3.33333C5.33333 3.15652 5.40357 2.98695 5.5286 2.86193C5.65362 2.7369 5.82319 2.66667 6 2.66667H8.06667C8.37733 1.14667 9.72267 0 11.3333 0C12.944 0 14.2893 1.14667 14.6 2.66667H16.6667C16.8435 2.66667 17.013 2.7369 17.1381 2.86193C17.2631 2.98695 17.3333 3.15652 17.3333 3.33333V6C17.3333 7.10267 16.436 8 15.3333 8ZM6.66667 4V6C6.66667 6.17681 6.7369 6.34638 6.86193 6.4714C6.98695 6.59643 7.15652 6.66667 7.33333 6.66667H15.3333C15.5101 6.66667 15.6797 6.59643 15.8047 6.4714C15.9298 6.34638 16 6.17681 16 6V4H14C13.8232 4 13.6536 3.92976 13.5286 3.80474C13.4036 3.67971 13.3333 3.51014 13.3333 3.33333C13.3333 2.23067 12.436 1.33333 11.3333 1.33333C10.2307 1.33333 9.33333 2.23067 9.33333 3.33333C9.33333 3.51014 9.2631 3.67971 9.13807 3.80474C9.01305 3.92976 8.84348 4 8.66667 4H6.66667ZM18 12H4.66667C4.48986 12 4.32029 11.9298 4.19526 11.8047C4.07024 11.6797 4 11.5101 4 11.3333C4 11.1565 4.07024 10.987 4.19526 10.8619C4.32029 10.7369 4.48986 10.6667 4.66667 10.6667H18C18.1768 10.6667 18.3464 10.7369 18.4714 10.8619C18.5964 10.987 18.6667 11.1565 18.6667 11.3333C18.6667 11.5101 18.5964 11.6797 18.4714 11.8047C18.3464 11.9298 18.1768 12 18 12ZM14 16H4.66667C4.48986 16 4.32029 15.9298 4.19526 15.8047C4.07024 15.6797 4 15.5101 4 15.3333C4 15.1565 4.07024 14.987 4.19526 14.8619C4.32029 14.7369 4.48986 14.6667 4.66667 14.6667H14C14.1768 14.6667 14.3464 14.7369 14.4714 14.8619C14.5964 14.987 14.6667 15.1565 14.6667 15.3333C14.6667 15.5101 14.5964 15.6797 14.4714 15.8047C14.3464 15.9298 14.1768 16 14 16ZM11.3333 20H4.66667C4.48986 20 4.32029 19.9298 4.19526 19.8047C4.07024 19.6797 4 19.5101 4 19.3333C4 19.1565 4.07024 18.987 4.19526 18.8619C4.32029 18.7369 4.48986 18.6667 4.66667 18.6667H11.3333C11.5101 18.6667 11.6797 18.7369 11.8047 18.8619C11.9298 18.987 12 19.1565 12 19.3333C12 19.5101 11.9298 19.6797 11.8047 19.8047C11.6797 19.9298 11.5101 20 11.3333 20Z" fill="#228CDB"/>
<path d="M22 12C21.8232 12 21.6536 11.9298 21.5286 11.8047C21.4036 11.6797 21.3333 11.5101 21.3333 11.3333V7.33333C21.3333 6.23067 20.436 5.33333 19.3333 5.33333H16.6667C16.4899 5.33333 16.3203 5.2631 16.1953 5.13807C16.0702 5.01305 16 4.84348 16 4.66667C16 4.48986 16.0702 4.32029 16.1953 4.19526C16.3203 4.07024 16.4899 4 16.6667 4H19.3333C21.1707 4 22.6667 5.49467 22.6667 7.33333V11.3333C22.6667 11.5101 22.5964 11.6797 22.4714 11.8047C22.3464 11.9298 22.1768 12 22 12Z" fill="#228CDB"/>
</g>
<defs>
<clipPath id="clip0_2813_1431">
<rect width="32" height="32" fill="white"/>
</clipPath>
</defs>
</svg>
