<svg width="32" height="32" viewBox="0 0 32 32" fill="none" xmlns="http://www.w3.org/2000/svg">
<g clip-path="url(#clip0_2882_1401)">
<path d="M30.0013 1.65186H15.3959C15.2711 1.65186 15.1515 1.70141 15.0633 1.78963C14.9751 1.87784 14.9255 1.99749 14.9255 2.12224C14.9255 2.24699 14.9751 2.36664 15.0633 2.45485C15.1515 2.54307 15.2711 2.59262 15.3959 2.59262H30.0013C30.5847 2.59262 31.0594 3.06721 31.0594 3.65061V23.8004C31.0594 24.3838 30.5847 24.8585 30.0013 24.8585H15.3959C15.2711 24.8585 15.1515 24.908 15.0633 24.9963C14.9751 25.0845 14.9255 25.2041 14.9255 25.3289C14.9255 25.4536 14.9751 25.5733 15.0633 25.6615C15.1515 25.7497 15.2711 25.7993 15.3959 25.7993H19.4292V27.4378H15.3959C15.2711 27.4378 15.1515 27.4873 15.0633 27.5755C14.9751 27.6637 14.9255 27.7834 14.9255 27.9081C14.9255 28.0329 14.9751 28.1525 15.0633 28.2408C15.1515 28.329 15.2711 28.3785 15.3959 28.3785H19.5927L20.073 29.4701H10.1716C10.0468 29.4701 9.92716 29.5196 9.83894 29.6078C9.75073 29.6961 9.70117 29.8157 9.70117 29.9405C9.70117 30.0652 9.75073 30.1849 9.83894 30.2731C9.92716 30.3613 10.0468 30.4108 10.1716 30.4108H21.9604C22.0851 30.4108 22.2048 30.3613 22.293 30.2731C22.3812 30.1849 22.4308 30.0652 22.4308 29.9405C22.4308 29.8157 22.3812 29.6961 22.293 29.6078C22.2048 29.5196 22.0851 29.4701 21.9604 29.4701H21.1008L20.37 27.8092V25.7992H30.0013C31.1035 25.7992 32.0002 24.9025 32.0002 23.8004V3.65061C32.0001 2.54853 31.1034 1.65186 30.0013 1.65186Z" fill="#228CDB"/>
<path d="M15.3962 21.2162C15.2714 21.2162 15.1518 21.2658 15.0636 21.354C14.9753 21.4422 14.9258 21.5618 14.9258 21.6866C14.9258 21.8113 14.9753 21.931 15.0636 22.0192C15.1518 22.1074 15.2714 22.157 15.3962 22.157H29.6484C29.7732 22.157 29.8928 22.1074 29.981 22.0192C30.0693 21.931 30.1188 21.8113 30.1188 21.6866V4.00383C30.1188 3.87908 30.0693 3.75943 29.981 3.67122C29.8928 3.58301 29.7732 3.53345 29.6484 3.53345H28.1803C28.0556 3.53345 27.9359 3.58301 27.8477 3.67122C27.7595 3.75943 27.71 3.87908 27.71 4.00383C27.71 4.12859 27.7595 4.24823 27.8477 4.33644C27.9359 4.42466 28.0556 4.47422 28.1803 4.47422H29.1781V21.2162H15.3962ZM26.1757 3.53345H15.3962C15.2714 3.53345 15.1518 3.58301 15.0636 3.67122C14.9753 3.75943 14.9258 3.87908 14.9258 4.00383C14.9258 4.12859 14.9753 4.24823 15.0636 4.33644C15.1518 4.42466 15.2714 4.47422 15.3962 4.47422H26.1757C26.3005 4.47422 26.4201 4.42466 26.5084 4.33644C26.5966 4.24823 26.6461 4.12859 26.6461 4.00383C26.6461 3.87908 26.5966 3.75943 26.5084 3.67122C26.4201 3.58301 26.3005 3.53345 26.1757 3.53345Z" fill="#228CDB"/>
<path d="M16.0212 24.0914C16.3662 24.0914 16.6458 23.8117 16.6458 23.4667C16.6458 23.1217 16.3662 22.842 16.0212 22.842C15.6762 22.842 15.3965 23.1217 15.3965 23.4667C15.3965 23.8117 15.6762 24.0914 16.0212 24.0914Z" fill="#228CDB"/>
<path d="M10.5188 26.2733C10.5188 26.7539 10.9098 27.1448 11.3903 27.1448H13.3022C13.4269 27.1448 13.5466 27.0953 13.6348 27.0071C13.723 26.9189 13.7725 26.7992 13.7725 26.6745C13.7725 26.5497 13.723 26.4301 13.6348 26.3418C13.5466 26.2536 13.4269 26.2041 13.3022 26.2041H11.4595V24.8514C11.4595 24.7402 11.4202 24.6327 11.3484 24.5478C11.2767 24.4629 11.1772 24.4061 11.0676 24.3876C9.55589 24.1315 8.15415 23.5508 6.90142 22.6616C6.81081 22.5973 6.70038 22.5672 6.58967 22.5765C6.47896 22.5859 6.37513 22.6341 6.29657 22.7126L5.33987 23.6693L3.47545 21.805L4.43215 20.8482C4.5107 20.7696 4.55892 20.6658 4.56825 20.5551C4.57758 20.4444 4.54743 20.3339 4.48314 20.2433C3.59405 18.9907 3.01335 17.589 2.75721 16.0772C2.73864 15.9676 2.68188 15.8682 2.59699 15.7964C2.51209 15.7247 2.40455 15.6853 2.29341 15.6853H0.940769V13.0487H2.29359C2.40474 13.0487 2.51229 13.0093 2.59719 12.9376C2.68208 12.8659 2.73884 12.7664 2.75739 12.6568C3.01347 11.145 3.59418 9.74332 4.48333 8.49072C4.54765 8.40011 4.57781 8.28966 4.56848 8.17893C4.55914 8.06821 4.51092 7.96437 4.43234 7.8858L3.47564 6.9291L5.34005 5.06475L6.29675 6.02145C6.37533 6.1 6.47917 6.14822 6.58989 6.15755C6.7006 6.16688 6.81105 6.13673 6.90167 6.07244C8.15433 5.18329 9.55602 4.60258 11.0678 4.3465C11.1774 4.32794 11.2769 4.27118 11.3486 4.18629C11.4203 4.10139 11.4597 3.99384 11.4597 3.88271V2.52988H13.3023C13.4271 2.52988 13.5467 2.48032 13.635 2.39211C13.7232 2.30389 13.7727 2.18425 13.7727 2.0595C13.7727 1.93474 13.7232 1.8151 13.635 1.72688C13.5467 1.63867 13.4271 1.58911 13.3023 1.58911H11.3905C10.9099 1.58911 10.519 1.98009 10.519 2.4607V3.49279C9.15976 3.77483 7.84871 4.31797 6.68642 5.08056L5.95626 4.35058C5.87551 4.26939 5.77946 4.20502 5.67367 4.1612C5.56787 4.11739 5.45444 4.09499 5.33993 4.09532C5.22543 4.095 5.11201 4.11739 5.00622 4.16121C4.90044 4.20502 4.8044 4.26939 4.72366 4.35058L2.76147 6.31284C2.42166 6.65264 2.42166 7.20556 2.76147 7.54543L3.49144 8.27541C2.72886 9.4377 2.18572 10.7487 1.90368 12.1079H0.871591C0.390984 12.1079 0 12.499 0 12.9795V15.7545C0 16.2351 0.390984 16.6261 0.871591 16.6261H1.90368C2.18572 17.9853 2.72886 19.2964 3.49144 20.4586L2.76147 21.1887C2.42166 21.5285 2.42166 22.0814 2.76147 22.4212L4.72373 24.3835C4.88836 24.5481 5.10718 24.6388 5.33999 24.6388C5.5728 24.6388 5.79169 24.5481 5.95632 24.3835L6.6863 23.6535C7.84865 24.4161 9.1597 24.9593 10.5189 25.2413L10.5188 26.2733Z" fill="#228CDB"/>
<path d="M12.7783 6.71494C12.903 6.71494 13.0227 6.66538 13.1109 6.57717C13.1991 6.48895 13.2487 6.36931 13.2487 6.24455C13.2487 6.1198 13.1991 6.00016 13.1109 5.91194C13.0227 5.82373 12.903 5.77417 12.7783 5.77417C8.04025 5.77417 4.18555 9.62888 4.18555 14.3669C4.18555 16.1066 4.70322 17.7827 5.68269 19.2139C5.72588 19.2771 5.78386 19.3288 5.85159 19.3645C5.91931 19.4002 5.99473 19.4188 6.07129 19.4187C6.15688 19.4186 6.24083 19.3952 6.3141 19.351C6.38736 19.3067 6.44716 19.2433 6.48706 19.1676C6.52695 19.0918 6.54543 19.0067 6.5405 18.9212C6.53557 18.8358 6.50741 18.7533 6.45907 18.6826C5.58717 17.4086 5.12632 15.9163 5.12632 14.3669C5.12625 10.1476 8.55893 6.71494 12.7783 6.71494ZM7.10946 20.824C8.67675 22.2011 10.6919 22.9603 12.7783 22.9597C12.903 22.9597 13.0227 22.9101 13.1109 22.8219C13.1991 22.7337 13.2487 22.6141 13.2487 22.4893C13.2487 22.3646 13.1991 22.2449 13.1109 22.1567C13.0227 22.0685 12.903 22.0189 12.7783 22.0189C10.9205 22.0195 9.12602 21.3435 7.73036 20.1173C7.63644 20.0364 7.5144 19.9958 7.39075 20.0044C7.26711 20.0131 7.15186 20.0701 7.07005 20.1632C6.98824 20.2563 6.94649 20.378 6.95387 20.5017C6.96125 20.6254 7.01716 20.7412 7.10946 20.824Z" fill="#228CDB"/>
<path d="M26.3379 7.98632V6.85564C26.3379 6.39303 25.9615 6.0166 25.4989 6.0166H24.3681C23.9055 6.0166 23.5292 6.39297 23.5292 6.85564V6.9506H19.4988C19.374 6.9506 19.2544 7.00014 19.1662 7.08839L17.0661 9.1885H10.1716C10.0468 9.1885 9.92716 9.23806 9.83894 9.32627C9.75073 9.41448 9.70117 9.53413 9.70117 9.65888C9.70117 9.78364 9.75073 9.90328 9.83894 9.99149C9.92716 10.0797 10.0468 10.1293 10.1716 10.1293H17.2609C17.3856 10.1293 17.5053 10.0797 17.5935 9.99148L19.6936 7.89137H23.5291V7.98632C23.5291 8.44893 23.9055 8.8253 24.3681 8.8253H25.4988C25.9615 8.82536 26.3379 8.44899 26.3379 7.98632ZM25.3971 7.88459H24.4699V6.95737H25.3971V7.88459ZM24.1257 13.8233H25.0405C25.5031 13.8233 25.8795 13.4469 25.8795 12.9843V12.0696C25.8795 11.607 25.5031 11.2306 25.0405 11.2306H24.1257C23.687 11.2306 23.3264 11.5693 23.2903 11.9989H21.1796C21.0549 11.9989 20.9352 12.0484 20.847 12.1367L19.3946 13.5891H10.676C10.5512 13.5891 10.4316 13.6387 10.3434 13.7269C10.2552 13.8151 10.2056 13.9347 10.2056 14.0595C10.2056 14.1842 10.2552 14.3039 10.3434 14.3921C10.4316 14.4803 10.5512 14.5299 10.676 14.5299H19.5895C19.7142 14.5299 19.8339 14.4803 19.9221 14.3921L21.3745 12.9397H23.2868V12.9844C23.2868 13.4469 23.6631 13.8233 24.1257 13.8233ZM24.2275 12.1712H24.9388V12.8825H24.2275V12.1712ZM26.3875 16.9926H25.4728C25.0146 16.9926 24.6415 17.362 24.6344 17.8186H22.725L21.2726 16.3662C21.229 16.3225 21.1771 16.2878 21.12 16.2642C21.063 16.2406 21.0018 16.2284 20.94 16.2284H12.2254C12.1006 16.2284 11.981 16.278 11.8928 16.3662C11.8046 16.4544 11.755 16.574 11.755 16.6988C11.755 16.8235 11.8046 16.9432 11.8928 17.0314C11.981 17.1196 12.1006 17.1692 12.2254 17.1692H20.7452L22.1976 18.6216C22.2413 18.6653 22.2931 18.6999 22.3502 18.7236C22.4072 18.7472 22.4684 18.7594 22.5302 18.7594H24.6344C24.6414 19.216 25.0144 19.5854 25.4727 19.5854H26.3875C26.8501 19.5854 27.2265 19.209 27.2265 18.7464V17.8317C27.2266 17.369 26.8502 16.9926 26.3875 16.9926ZM26.2858 18.6446H25.5745V17.9334H26.2858V18.6446Z" fill="#228CDB"/>
<path d="M17.5802 12.3595C17.7049 12.3595 17.8246 12.3099 17.9128 12.2217C18.001 12.1335 18.0505 12.0138 18.0505 11.8891C18.0505 11.7643 18.001 11.6447 17.9128 11.5565C17.8246 11.4683 17.7049 11.4187 17.5802 11.4187H11.1501C11.0253 11.4187 10.9057 11.4683 10.8175 11.5565C10.7292 11.6447 10.6797 11.7643 10.6797 11.8891C10.6797 12.0138 10.7292 12.1335 10.8175 12.2217C10.9057 12.3099 11.0253 12.3595 11.1501 12.3595H17.5802Z" fill="#228CDB"/>
</g>
<defs>
<clipPath id="clip0_2882_1401">
<rect width="32" height="32" fill="white"/>
</clipPath>
</defs>
</svg>
