<svg width="32" height="32" viewBox="0 0 32 32" fill="none" xmlns="http://www.w3.org/2000/svg">
<g clip-path="url(#clip0_2957_1310)">
<path d="M31.7501 25.2744C31.7501 24.8141 31.5317 24.4042 31.1934 24.1419C31.3792 23.8946 31.4796 23.5935 31.4792 23.2841C31.4792 22.6759 31.0981 22.1554 30.5624 21.9479V12.1968C30.5624 11.8563 30.3896 11.5555 30.1271 11.3772L30.1261 9.35951C30.1257 8.47138 30.2539 8.02963 30.4025 7.51801C30.569 6.94457 30.7577 6.29469 30.7523 4.97994C30.7523 4.96907 30.7518 4.95826 30.751 4.94744L30.5559 2.46338C30.4848 1.55788 29.8139 1.11288 29.2207 1.08263C28.9523 1.06851 28.703 1.13126 28.4909 1.25313C28.2397 0.818068 27.7869 0.535068 27.2651 0.535068C26.9468 0.535068 26.6526 0.639506 26.4145 0.815693C26.1526 0.472068 25.7392 0.249756 25.2748 0.249756C24.8145 0.249756 24.4045 0.468193 24.1422 0.806568C23.8949 0.620706 23.5938 0.520363 23.2844 0.520693C22.6763 0.520693 22.1557 0.901818 21.9482 1.43763H12.197C11.8566 1.43763 11.5557 1.61038 11.3775 1.87282L9.35981 1.87382H9.355C8.47012 1.87382 8.02887 1.74569 7.51825 1.59744C6.95281 1.43326 6.31294 1.24744 5.03444 1.24744C5.00581 1.24744 4.9765 1.24657 4.94763 1.24888L2.46356 1.44407C1.55813 1.51519 1.11312 2.18601 1.08287 2.77913C1.06919 3.04732 1.132 3.29657 1.25375 3.50869C0.818438 3.75982 0.53525 4.21282 0.53525 4.73482C0.53525 5.05307 0.639688 5.34732 0.815938 5.58538C0.472313 5.84732 0.25 6.26063 0.25 6.72507C0.25 7.18538 0.468437 7.59532 0.806812 7.85763C0.62095 8.10494 0.520607 8.40601 0.520938 8.71538C0.520938 9.32357 0.902063 9.84413 1.43781 10.0516V19.8028C1.43781 20.1432 1.61063 20.444 1.87306 20.6223L1.87406 22.6399C1.8745 23.5281 1.74625 23.9699 1.59775 24.4814C1.43125 25.0549 1.2425 25.7048 1.24788 27.0196C1.24788 27.0304 1.24838 27.0413 1.24919 27.0521L1.44438 29.5361C1.5155 30.4416 2.18638 30.8866 2.7795 30.9168C2.804 30.9181 2.82831 30.9187 2.8525 30.9187C3.09294 30.9187 3.31669 30.8572 3.50937 30.7466C3.76056 31.1816 4.21338 31.4644 4.73513 31.4644C5.05338 31.4644 5.34763 31.36 5.58569 31.1838C5.84763 31.5274 6.26094 31.7498 6.72537 31.7498C7.18569 31.7498 7.59562 31.5313 7.85794 31.1929C8.10525 31.3788 8.40632 31.4791 8.71569 31.4788C9.32388 31.4788 9.84437 31.0977 10.0519 30.5619H19.8031C20.1436 30.5619 20.4444 30.3891 20.6226 30.1267L22.6403 30.1257H22.6451C23.5299 30.1257 23.9712 30.2538 24.4818 30.4021C25.0473 30.5662 25.6869 30.752 26.9653 30.752C26.9941 30.752 27.0234 30.7528 27.0525 30.7506L29.5365 30.5554C30.442 30.4843 30.887 29.8134 30.9172 29.2203C30.9309 28.9521 30.8681 28.7029 30.7463 28.4908C31.1816 28.2397 31.4648 27.7867 31.4648 27.2646C31.4648 26.9464 31.3603 26.6521 31.1841 26.4141C31.5278 26.1521 31.75 25.7388 31.75 25.2744L31.7501 25.2744ZM27.8402 19.8828H24.9907C24.2009 19.8828 23.5099 20.1583 22.9368 20.7016L22.7338 20.894V13.8686H29.6873V21.8515H29.1524C29.2249 21.6783 29.2621 21.4924 29.2619 21.3046C29.2619 20.5206 28.6241 19.8828 27.8401 19.8828L27.8402 19.8828ZM20.6075 22.2734C20.4277 22.0228 20.1346 21.8586 19.8032 21.8586H10.2774C9.94331 21.4973 9.76213 21.0863 9.7265 20.6073C9.97719 20.4275 10.1413 20.1344 10.1413 19.8031V10.2772C10.5026 9.94307 10.9136 9.76194 11.3927 9.72632C11.5725 9.97694 11.8656 10.1411 12.1969 10.1411H21.7228C22.0569 10.5024 22.2381 10.9134 22.2736 11.3925C22.023 11.5724 21.8588 11.8654 21.8588 12.1968V21.7226C21.4974 22.0567 21.0864 22.2379 20.6075 22.2734ZM10.1484 29.1523C10.3217 29.2248 10.5076 29.262 10.6953 29.2618C11.4793 29.2618 12.1171 28.624 12.1171 27.84V24.9904C12.1171 24.2007 11.8416 23.5097 11.2983 22.9366L11.1059 22.7336H18.1313V29.6871H10.1484V29.1523H10.1484ZM2.84769 10.1483C2.77525 10.3215 2.73803 10.5074 2.73819 10.6951C2.73819 11.4791 3.376 12.1169 4.16 12.1169H7.0095C7.79925 12.1169 8.49025 11.8415 9.06337 11.2981L9.26631 11.1058V18.1311H2.31294V10.1483H2.84769V10.1483ZM2.42819 19.9182C2.36569 19.9182 2.31294 19.8654 2.31294 19.803V19.0061H9.26637V19.803C9.26637 19.8654 9.21362 19.9182 9.15119 19.9182H2.42819ZM21.8517 2.84744C21.6785 2.775 21.4926 2.73778 21.3048 2.73794C20.5208 2.73794 19.8829 3.37576 19.8829 4.15976V7.00926C19.8829 7.79907 20.1584 8.49007 20.7018 9.06313L20.8942 9.26607H13.8688V2.31269H21.8517V2.84744ZM29.572 12.0816C29.6345 12.0816 29.6873 12.1343 29.6873 12.1968V12.9936H22.7338V12.1968C22.7338 12.1343 22.7866 12.0816 22.849 12.0816H29.5719H29.572ZM23.2844 1.39576C23.5919 1.39576 23.842 1.64588 23.842 1.95338C23.842 2.06941 23.8881 2.18069 23.9701 2.26274C24.0522 2.34479 24.1635 2.39088 24.2795 2.39088C24.3955 2.39088 24.5068 2.34479 24.5889 2.26274C24.6709 2.18069 24.717 2.06941 24.717 1.95338V1.68244C24.717 1.37494 24.9671 1.12482 25.2746 1.12482C25.5821 1.12482 25.8323 1.37494 25.8323 1.68244V1.96769C25.8323 2.08373 25.8783 2.19501 25.9604 2.27705C26.0424 2.3591 26.1537 2.40519 26.2698 2.40519C26.3858 2.40519 26.4971 2.3591 26.5791 2.27705C26.6612 2.19501 26.7073 2.08373 26.7073 1.96769C26.7073 1.66019 26.9574 1.41007 27.2649 1.41007C27.5608 1.41007 27.8009 1.66244 27.8235 1.99719L27.8436 2.29519C27.8515 2.41096 27.9049 2.51888 27.9923 2.5952C28.0797 2.67153 28.1939 2.71002 28.3096 2.70219C28.5138 2.68838 28.6751 2.53651 28.7101 2.34401H28.7106C28.7653 2.04363 28.9866 1.94713 29.1759 1.95644C29.4003 1.96794 29.6514 2.12501 29.6834 2.53182L29.8773 4.99957C29.8806 6.17707 29.7187 6.73463 29.5621 7.27401C29.4089 7.80151 29.2505 8.34707 29.251 9.35994L29.2519 11.2065H23.1346C23.0618 10.5667 22.7949 9.99913 22.3369 9.51607L21.3369 8.46107C20.9474 8.05026 20.758 7.57532 20.758 7.00919V4.15969C20.758 3.85819 21.0033 3.61288 21.3049 3.61288C21.6064 3.61288 21.8518 3.85819 21.8518 4.15969V6.04157C21.8518 6.1576 21.8978 6.26888 21.9799 6.35093C22.0619 6.43297 22.1732 6.47907 22.2893 6.47907C22.4053 6.47907 22.5166 6.43297 22.5986 6.35093C22.6807 6.26888 22.7268 6.1576 22.7268 6.04157V1.95338C22.7268 1.64588 22.9769 1.39576 23.2844 1.39576ZM12.0818 2.42794C12.0818 2.36551 12.1346 2.31269 12.197 2.31269H12.9939V9.26607H12.197C12.1666 9.26566 12.1375 9.2534 12.116 9.23188C12.0945 9.21037 12.0822 9.1813 12.0818 9.15088V2.42794ZM1.95369 8.15801C2.06972 8.15801 2.181 8.11191 2.26305 8.02987C2.34509 7.94782 2.39119 7.83654 2.39119 7.72051C2.39119 7.60447 2.34509 7.49319 2.26305 7.41115C2.181 7.3291 2.06972 7.28301 1.95369 7.28301H1.68281C1.37538 7.28301 1.12519 7.03288 1.12519 6.72538C1.12519 6.41788 1.37531 6.16776 1.68281 6.16776H1.96806C2.08409 6.16776 2.19537 6.12166 2.27742 6.03962C2.35947 5.95757 2.40556 5.84629 2.40556 5.73026C2.40556 5.61422 2.35947 5.50294 2.27742 5.4209C2.19537 5.33885 2.08409 5.29276 1.96806 5.29276C1.66056 5.29276 1.41044 5.04257 1.41044 4.73507C1.41044 4.43926 1.66287 4.19907 1.99762 4.17644L2.29562 4.15632C2.41139 4.14848 2.51929 4.09498 2.59562 4.00759C2.67194 3.9202 2.71043 3.80608 2.70263 3.69032C2.69612 3.59319 2.65734 3.50103 2.59246 3.42846C2.52757 3.3559 2.4403 3.3071 2.3445 3.28982V3.28938C2.04406 3.23463 1.94725 3.01307 1.95694 2.82401C1.96838 2.59963 2.12556 2.34863 2.53231 2.31663L4.99994 2.12269H5.03519C6.18856 2.12269 6.74044 2.28294 7.27437 2.43801C7.80106 2.59088 8.34562 2.74907 9.35525 2.74907H9.36031L11.2069 2.74813V8.86551C10.567 8.93832 9.99944 9.20519 9.51644 9.66319L8.4615 10.6633C8.05063 11.0527 7.57575 11.2421 7.00962 11.2421H4.16012C3.85862 11.2421 3.61331 10.9968 3.61331 10.6953C3.61331 10.3938 3.85862 10.1484 4.16012 10.1484H6.042C6.15803 10.1484 6.26931 10.1024 6.35136 10.0203C6.43341 9.93826 6.4795 9.82698 6.4795 9.71094C6.4795 9.59491 6.43341 9.48363 6.35136 9.40158C6.26931 9.31954 6.15803 9.27344 6.042 9.27344H1.95369C1.64619 9.27344 1.39606 9.02326 1.39606 8.71576C1.39606 8.40826 1.64619 8.15813 1.95369 8.15813V8.15801ZM8.71587 30.604C8.40844 30.604 8.15825 30.3538 8.15825 30.0463C8.15825 29.9303 8.11216 29.819 8.03011 29.737C7.94806 29.6549 7.83678 29.6088 7.72075 29.6088C7.60472 29.6088 7.49344 29.6549 7.41139 29.737C7.32934 29.819 7.28325 29.9303 7.28325 30.0463V30.3172C7.28325 30.6247 7.03312 30.8749 6.72563 30.8749C6.41813 30.8749 6.168 30.6247 6.168 30.3172V30.032C6.168 29.916 6.12191 29.8047 6.03986 29.7226C5.95781 29.6406 5.84653 29.5945 5.7305 29.5945C5.61447 29.5945 5.50319 29.6406 5.42114 29.7226C5.33909 29.8047 5.293 29.916 5.293 30.032C5.293 30.3395 5.04287 30.5896 4.73537 30.5896C4.4395 30.5896 4.19931 30.3373 4.17675 30.0025L4.15662 29.7044C4.14031 29.4633 3.93106 29.2808 3.69062 29.2974C3.4865 29.3112 3.32512 29.4631 3.29012 29.6556H3.28969C3.23494 29.956 3.01356 30.0528 2.82431 30.0431C2.6 30.0316 2.34888 29.8746 2.31694 29.4678L2.12306 27.0001C2.11975 25.8226 2.28169 25.2649 2.43825 24.7256C2.59144 24.1981 2.74981 23.6525 2.74931 22.6396L2.74837 20.7931H8.86575C8.93856 21.4329 9.2055 22.0005 9.66344 22.4835L10.6635 23.5386C11.053 23.9494 11.2423 24.4243 11.2423 24.9904V27.8399C11.2423 28.1414 10.997 28.3868 10.6955 28.3868C10.394 28.3868 10.1486 28.1414 10.1486 27.8399V25.958C10.1486 25.842 10.1025 25.7307 10.0205 25.6486C9.93844 25.5666 9.82716 25.5205 9.71113 25.5205C9.59509 25.5205 9.48381 25.5666 9.40177 25.6486C9.31972 25.7307 9.27363 25.842 9.27363 25.958V30.0463C9.27363 30.3538 9.0235 30.6039 8.716 30.6039L8.71587 30.604ZM19.9184 29.5718C19.9184 29.6343 19.8657 29.6871 19.8033 29.6871H19.0064V22.7336H19.8033C19.8657 22.7336 19.9184 22.7864 19.9184 22.8489V29.5718ZM30.0434 29.1758C30.032 29.4001 29.8748 29.6512 29.468 29.6832L27.0004 29.8771H26.9648C25.8117 29.8771 25.2598 29.7169 24.7259 29.5618C24.1993 29.4089 23.6546 29.2508 22.645 29.2508H22.64L20.7934 29.2517V23.1343C21.4333 23.0615 22.0008 22.7946 22.4839 22.3367L23.5388 21.3366C23.9497 20.9471 24.4246 20.7578 24.9908 20.7578H27.8403C28.1418 20.7578 28.3871 21.0031 28.3871 21.3046C28.3871 21.6061 28.1418 21.8514 27.8403 21.8514H25.9584C25.8423 21.8514 25.7311 21.8975 25.649 21.9796C25.567 22.0616 25.5209 22.1729 25.5209 22.2889C25.5209 22.405 25.567 22.5163 25.649 22.5983C25.7311 22.6803 25.8423 22.7264 25.9584 22.7264H30.0466C30.3541 22.7264 30.6042 22.9766 30.6042 23.2841C30.6042 23.5916 30.3541 23.8418 30.0466 23.8418C29.9306 23.8418 29.8193 23.8879 29.7373 23.9699C29.6552 24.0519 29.6091 24.1632 29.6091 24.2793C29.6091 24.3953 29.6552 24.5066 29.7373 24.5886C29.8193 24.6707 29.9306 24.7168 30.0466 24.7168H30.3176C30.625 24.7168 30.8752 24.9669 30.8752 25.2744C30.8752 25.5819 30.6251 25.8321 30.3176 25.8321H30.0323C29.9163 25.8321 29.805 25.8782 29.723 25.9602C29.6409 26.0423 29.5948 26.1535 29.5948 26.2696C29.5948 26.3856 29.6409 26.4969 29.723 26.5789C29.805 26.661 29.9163 26.7071 30.0323 26.7071C30.3398 26.7071 30.5899 26.9572 30.5899 27.2647C30.5899 27.5606 30.3375 27.8008 30.0028 27.8233L29.7048 27.8434C29.5983 27.8506 29.4982 27.8964 29.4232 27.9723C29.3481 28.0481 29.3034 28.1487 29.2974 28.2552C29.2914 28.3617 29.3245 28.4668 29.3905 28.5506C29.4565 28.6344 29.5509 28.6912 29.6558 28.7103V28.7104C29.9563 28.7651 30.0531 28.9867 30.0434 29.1758V29.1758ZM16.0001 11.7563C13.6602 11.7563 11.7566 13.6599 11.7566 15.9998C11.7566 18.3397 13.6602 20.2434 16.0001 20.2434C18.3401 20.2434 20.2437 18.3397 20.2437 15.9998C20.2437 13.6599 18.3401 11.7563 16.0001 11.7563ZM16.0001 19.3684C14.1427 19.3684 12.6316 17.8573 12.6316 15.9999C12.6316 14.1425 14.1427 12.6313 16.0001 12.6313C17.8576 12.6313 19.3687 14.1425 19.3687 15.9999C19.3687 17.8573 17.8576 19.3684 16.0001 19.3684ZM17.8184 14.5588C17.859 14.5994 17.8912 14.6476 17.9132 14.7007C17.9352 14.7538 17.9465 14.8107 17.9465 14.8681C17.9465 14.9256 17.9352 14.9825 17.9132 15.0356C17.8912 15.0886 17.859 15.1369 17.8184 15.1775L15.5549 17.4409C15.5075 17.4884 15.4497 17.5243 15.3862 17.5458C15.3227 17.5674 15.255 17.5741 15.1885 17.5653C15.122 17.5566 15.0583 17.5326 15.0026 17.4953C14.9468 17.4581 14.9003 17.4084 14.8667 17.3503L14.1124 16.0438C14.0833 15.994 14.0642 15.9389 14.0564 15.8818C14.0486 15.8246 14.0521 15.7664 14.0669 15.7107C14.0816 15.6549 14.1073 15.6026 14.1423 15.5567C14.1774 15.5109 14.2211 15.4725 14.2711 15.4436C14.3211 15.4148 14.3763 15.3961 14.4335 15.3886C14.4907 15.3812 14.5488 15.3852 14.6045 15.4003C14.6602 15.4154 14.7123 15.4414 14.7579 15.4767C14.8035 15.5121 14.8417 15.5561 14.8702 15.6063L15.3394 16.4191L17.1998 14.5588C17.2818 14.4768 17.3931 14.4307 17.5091 14.4307C17.6251 14.4307 17.7363 14.4768 17.8184 14.5588Z" fill="#228CDB"/>
</g>
<defs>
<clipPath id="clip0_2957_1310">
<rect width="32" height="32" fill="white"/>
</clipPath>
</defs>
</svg>
