<svg width="30" height="30" viewBox="0 0 30 30" fill="none" xmlns="http://www.w3.org/2000/svg">
<path fill-rule="evenodd" clip-rule="evenodd" d="M29.6654 15.0007C29.6654 23.1007 23.0987 29.6673 14.9987 29.6673C6.8987 29.6673 0.332031 23.1007 0.332031 15.0007C0.332031 6.90065 6.8987 0.333984 14.9987 0.333984C23.0987 0.333984 29.6654 6.90065 29.6654 15.0007ZM14.9987 28.334C22.3627 28.334 28.332 22.3647 28.332 15.0007C28.332 7.63665 22.3627 1.66732 14.9987 1.66732C7.6347 1.66732 1.66536 7.63665 1.66536 15.0007C1.66536 22.3647 7.6347 28.334 14.9987 28.334ZM14.9987 12.334C15.1755 12.334 15.3451 12.4042 15.4701 12.5292C15.5951 12.6543 15.6654 12.8238 15.6654 13.0007V22.334C15.6654 22.5108 15.5951 22.6804 15.4701 22.8054C15.3451 22.9304 15.1755 23.0007 14.9987 23.0007C14.8219 23.0007 14.6523 22.9304 14.5273 22.8054C14.4023 22.6804 14.332 22.5108 14.332 22.334V13.0007C14.332 12.8238 14.4023 12.6543 14.5273 12.5292C14.6523 12.4042 14.8219 12.334 14.9987 12.334ZM14.9987 9.66732C15.3523 9.66732 15.6915 9.52684 15.9415 9.27679C16.1916 9.02674 16.332 8.68761 16.332 8.33398C16.332 7.98036 16.1916 7.64122 15.9415 7.39118C15.6915 7.14113 15.3523 7.00065 14.9987 7.00065C14.6451 7.00065 14.3059 7.14113 14.0559 7.39118C13.8058 7.64122 13.6654 7.98036 13.6654 8.33398C13.6654 8.68761 13.8058 9.02674 14.0559 9.27679C14.3059 9.52684 14.6451 9.66732 14.9987 9.66732Z" fill="#228CDB"/>
</svg>
