<svg width="32" height="32" viewBox="0 0 32 32" fill="none" xmlns="http://www.w3.org/2000/svg">
<g clip-path="url(#clip0_4155_3287)">
<path d="M17.5647 14.0005V6.89027C19.0856 7.14708 20.5209 7.77111 21.746 8.70822C21.9901 8.87572 22.2783 8.9671 22.5742 8.97079C23.5256 8.97079 24.3013 8.20522 24.3114 7.25383C24.3134 6.84577 24.1536 6.45355 23.867 6.16307C22.0948 4.64561 19.8738 3.75151 17.5445 3.61792V1.23434C17.5445 0.55358 16.9931 0.00213723 16.3123 0.00213723C16.2982 0.000137211 16.284 0.000137211 16.2699 0.000137211C15.579 -0.00998789 15.0094 0.541517 14.9993 1.23434V3.53711C10.4544 3.8603 7.36384 6.66808 7.36384 10.405C7.36384 14.9903 11.2624 16.2629 14.9993 17.2729V25.3528C13.0278 25.0881 11.1694 24.2701 9.64636 22.9894C9.35955 22.7612 9.00398 22.6339 8.63635 22.6259C7.70516 22.6905 6.98809 23.4702 7.00015 24.4034C6.99813 24.8115 7.15792 25.2037 7.44453 25.4942C9.53054 27.3728 12.2137 28.4532 15.0194 28.5444V30.7663C15.0194 30.7804 15.0214 30.7946 15.0214 30.8088C15.0537 31.4996 15.6415 32.0328 16.3324 31.9985C17.0131 31.9985 17.5646 31.4471 17.5646 30.7663V28.504C23.0791 28.1404 25.301 24.7873 25.301 21.2321C25.3011 16.4649 21.3017 15.0105 17.5647 14.0005ZM15.0195 13.3541C12.8178 12.7078 11.1008 12.0412 11.1008 10.1626C11.1008 8.28403 12.6562 6.93064 15.0195 6.74889V13.3541ZM17.5647 25.3931V18.0405C19.8473 18.6869 21.6248 19.5555 21.6046 21.6764C21.6046 23.2116 20.5542 25.0296 17.5647 25.3931Z" fill="#228CDB"/>
</g>
<defs>
<clipPath id="clip0_4155_3287">
<rect width="32" height="32" fill="white"/>
</clipPath>
</defs>
</svg>
