<svg width="16" height="17" viewBox="0 0 16 17" fill="none" xmlns="http://www.w3.org/2000/svg">
<path d="M8.6663 8.33329C8.53964 8.33329 8.41297 8.28662 8.31297 8.18662C8.11964 7.99329 8.11964 7.67329 8.31297 7.47995L13.7796 2.01329C13.973 1.81995 14.293 1.81995 14.4863 2.01329C14.6796 2.20662 14.6796 2.52662 14.4863 2.71995L9.01964 8.18662C8.91964 8.28662 8.79297 8.33329 8.6663 8.33329Z" fill="#11466E"/>
<path d="M14.6668 5.53337C14.3935 5.53337 14.1668 5.30671 14.1668 5.03337V2.33337H11.4668C11.1935 2.33337 10.9668 2.10671 10.9668 1.83337C10.9668 1.56004 11.1935 1.33337 11.4668 1.33337H14.6668C14.9401 1.33337 15.1668 1.56004 15.1668 1.83337V5.03337C15.1668 5.30671 14.9401 5.53337 14.6668 5.53337Z" fill="#11466E"/>
<path d="M10.0007 15.6667H6.00065C2.38065 15.6667 0.833984 14.12 0.833984 10.5V6.50004C0.833984 2.88004 2.38065 1.33337 6.00065 1.33337H7.33398C7.60732 1.33337 7.83398 1.56004 7.83398 1.83337C7.83398 2.10671 7.60732 2.33337 7.33398 2.33337H6.00065C2.92732 2.33337 1.83398 3.42671 1.83398 6.50004V10.5C1.83398 13.5734 2.92732 14.6667 6.00065 14.6667H10.0007C13.074 14.6667 14.1673 13.5734 14.1673 10.5V9.16671C14.1673 8.89337 14.394 8.66671 14.6673 8.66671C14.9407 8.66671 15.1673 8.89337 15.1673 9.16671V10.5C15.1673 14.12 13.6207 15.6667 10.0007 15.6667Z" fill="#11466E"/>
</svg>
