<svg width="30" height="18" viewBox="0 0 30 18" fill="none" xmlns="http://www.w3.org/2000/svg">
<path d="M28.5 3.00477H1.5C1.10218 3.00477 0.720644 2.84648 0.43934 2.56473C0.158035 2.28298 0 1.90084 0 1.50238C0 1.10393 0.158035 0.72179 0.43934 0.440038C0.720644 0.158286 1.10218 0 1.5 0H28.5C28.8978 0 29.2794 0.158286 29.5607 0.440038C29.842 0.72179 30 1.10393 30 1.50238C30 1.90084 29.842 2.28298 29.5607 2.56473C29.2794 2.84648 28.8978 3.00477 28.5 3.00477ZM23.5 10.0159H6.5C6.10218 10.0159 5.72064 9.85761 5.43934 9.57586C5.15804 9.29411 5 8.91197 5 8.51351C5 8.11506 5.15804 7.73292 5.43934 7.45117C5.72064 7.16941 6.10218 7.01113 6.5 7.01113H23.5C23.8978 7.01113 24.2794 7.16941 24.5607 7.45117C24.842 7.73292 25 8.11506 25 8.51351C25 8.91197 24.842 9.29411 24.5607 9.57586C24.2794 9.85761 23.8978 10.0159 23.5 10.0159ZM17.5 17.027H12.5C12.1022 17.027 11.7206 16.8687 11.4393 16.587C11.158 16.3052 11 15.9231 11 15.5246C11 15.1262 11.158 14.744 11.4393 14.4623C11.7206 14.1805 12.1022 14.0223 12.5 14.0223H17.5C17.8978 14.0223 18.2794 14.1805 18.5607 14.4623C18.842 14.744 19 15.1262 19 15.5246C19 15.9231 18.842 16.3052 18.5607 16.587C18.2794 16.8687 17.8978 17.027 17.5 17.027Z" fill="black"/>
</svg>
