<svg width="23" height="22" viewBox="0 0 23 22" fill="none" xmlns="http://www.w3.org/2000/svg">
<ellipse cx="11.5" cy="11" rx="10.5" ry="10" stroke="#226CDB" stroke-width="1.5"/>
<path d="M12.527 6.575L12.332 13.85H10.907L10.712 6.575H12.527ZM11.672 17.105C11.362 17.105 11.102 17 10.892 16.79C10.682 16.58 10.577 16.32 10.577 16.01C10.577 15.7 10.682 15.44 10.892 15.23C11.102 15.02 11.362 14.915 11.672 14.915C11.972 14.915 12.227 15.02 12.437 15.23C12.647 15.44 12.752 15.7 12.752 16.01C12.752 16.32 12.647 16.58 12.437 16.79C12.227 17 11.972 17.105 11.672 17.105Z" fill="#226CDB"/>
</svg>
