<svg width="32" height="32" viewBox="0 0 32 32" fill="none" xmlns="http://www.w3.org/2000/svg">
<path d="M28.1214 9.30677C26.988 8.05344 25.0947 7.42677 22.348 7.42677H22.028V7.37344C22.028 5.13344 22.028 2.36011 17.0147 2.36011H14.988C9.97468 2.36011 9.97468 5.14677 9.97468 7.37344V7.44011H9.65468C6.89468 7.44011 5.01469 8.06677 3.88135 9.32011C2.56135 10.7868 2.60135 12.7601 2.73469 14.1068L2.74802 14.2001L2.85881 15.3634C2.87307 15.5132 2.95391 15.6485 3.07967 15.7311C3.38665 15.9327 3.9773 16.3156 4.32135 16.5068C4.50802 16.6268 4.70802 16.7334 4.90802 16.8401C7.18802 18.0934 9.69468 18.9334 12.2414 19.3468C12.3614 20.6001 12.908 22.0668 15.828 22.0668C18.748 22.0668 19.3214 20.6134 19.4147 19.3201C22.1347 18.8801 24.7614 17.9334 27.1347 16.5468C27.2147 16.5068 27.268 16.4668 27.3347 16.4268C27.8845 16.116 28.4558 15.7302 28.9717 15.3559C29.0844 15.274 29.1568 15.148 29.1722 15.0095L29.2014 14.7468L29.268 14.1201C29.2814 14.0401 29.2814 13.9734 29.2947 13.8801C29.4014 12.5334 29.3747 10.6934 28.1214 9.30677ZM17.4547 18.4401C17.4547 19.8534 17.4547 20.0668 15.8147 20.0668C14.1747 20.0668 14.1747 19.8134 14.1747 18.4534V16.7734H17.4547V18.4401ZM11.8814 7.42677V7.37344C11.8814 5.10677 11.8814 4.26677 14.988 4.26677H17.0147C20.1214 4.26677 20.1214 5.12011 20.1214 7.37344V7.44011H11.8814V7.42677Z" fill="#228CDB"/>
<path d="M28.1039 18.1825C28.4569 18.0131 28.8621 18.2939 28.8267 18.6839L28.3211 24.2534C28.0411 26.92 26.9478 29.64 21.0811 29.64H10.9211C5.05443 29.64 3.96109 26.92 3.68109 24.2667L3.20038 18.9789C3.16534 18.5934 3.56202 18.3132 3.91415 18.4739C5.37179 19.139 8.49468 20.5169 10.3236 20.978C10.4883 21.0195 10.6222 21.1372 10.6911 21.2924C11.4828 23.0765 13.2533 24.0267 15.8278 24.0267C18.3768 24.0267 20.1705 23.0399 20.9643 21.2526C21.0333 21.0973 21.1677 20.9795 21.3325 20.9379C23.2721 20.4474 26.585 18.9116 28.1039 18.1825Z" fill="#228CDB"/>
</svg>
