<svg width="17" height="19" viewBox="0 0 17 19" fill="none" xmlns="http://www.w3.org/2000/svg">
<path fill-rule="evenodd" clip-rule="evenodd" d="M8.335 0C10.5456 0 12.6656 0.878149 14.2287 2.44126C15.7919 4.00438 16.67 6.12442 16.67 8.335C16.67 11.1819 15.1178 13.512 13.4823 15.1836C12.665 16.0096 11.7734 16.7586 10.8188 17.4211L10.4243 17.6896L10.2391 17.8128L9.88994 18.0351L9.57877 18.2249L9.19351 18.4491C8.93188 18.598 8.63603 18.6763 8.335 18.6763C8.03397 18.6763 7.73812 18.598 7.47649 18.4491L7.09123 18.2249L6.60965 17.9286L6.43184 17.8128L6.05214 17.56C5.02228 16.8629 4.06291 16.067 3.18767 15.1836C1.55216 13.511 0 11.1819 0 8.335C0 6.12442 0.878149 4.00438 2.44126 2.44126C4.00438 0.878149 6.12442 0 8.335 0ZM8.335 1.85222C6.61566 1.85222 4.96674 2.53523 3.75098 3.75098C2.53523 4.96674 1.85222 6.61566 1.85222 8.335C1.85222 10.4854 3.03024 12.3728 4.51109 13.888C5.1479 14.5324 5.83611 15.124 6.56891 15.6568L6.99306 15.9587C7.13013 16.0541 7.26164 16.143 7.38851 16.2255L7.7497 16.457L8.06735 16.6506L8.335 16.8071L8.75638 16.5579L9.09626 16.3449C9.27685 16.2301 9.47134 16.1014 9.67694 15.9587L10.1011 15.6568C10.8339 15.124 11.5221 14.5324 12.1589 13.888C13.6398 12.3738 14.8178 10.4854 14.8178 8.335C14.8178 6.61566 14.1348 4.96674 12.919 3.75098C11.7033 2.53523 10.0543 1.85222 8.335 1.85222ZM8.335 4.63056C9.31748 4.63056 10.2597 5.02084 10.9544 5.71556C11.6492 6.41028 12.0394 7.35252 12.0394 8.335C12.0394 9.31748 11.6492 10.2597 10.9544 10.9544C10.2597 11.6492 9.31748 12.0394 8.335 12.0394C7.35252 12.0394 6.41028 11.6492 5.71556 10.9544C5.02084 10.2597 4.63056 9.31748 4.63056 8.335C4.63056 7.35252 5.02084 6.41028 5.71556 5.71556C6.41028 5.02084 7.35252 4.63056 8.335 4.63056ZM8.335 6.48278C7.84376 6.48278 7.37264 6.67792 7.02528 7.02528C6.67792 7.37264 6.48278 7.84376 6.48278 8.335C6.48278 8.82624 6.67792 9.29736 7.02528 9.64472C7.37264 9.99208 7.84376 10.1872 8.335 10.1872C8.82624 10.1872 9.29736 9.99208 9.64472 9.64472C9.99208 9.29736 10.1872 8.82624 10.1872 8.335C10.1872 7.84376 9.99208 7.37264 9.64472 7.02528C9.29736 6.67792 8.82624 6.48278 8.335 6.48278Z" fill="black"/>
</svg>
