<svg width="32" height="32" viewBox="0 0 32 32" fill="none" xmlns="http://www.w3.org/2000/svg">
<path fill-rule="evenodd" clip-rule="evenodd" d="M15.3327 27.0174H3.93268C3.86196 27.0174 3.79413 26.9893 3.74412 26.9393C3.69411 26.8893 3.66602 26.8215 3.66602 26.7507V24.8174C3.66602 23.7094 4.45668 22.7334 5.67535 21.9041C7.85135 20.4187 11.3727 19.4827 15.3327 19.4827C15.5979 19.4827 15.8523 19.3774 16.0398 19.1899C16.2273 19.0023 16.3327 18.748 16.3327 18.4827C16.3327 18.2175 16.2273 17.9632 16.0398 17.7756C15.8523 17.5881 15.5979 17.4827 15.3327 17.4827C10.9033 17.4827 6.98202 18.5907 4.54735 20.2507C2.69002 21.5174 1.66602 23.1267 1.66602 24.8161V26.7507C1.66602 27.3519 1.90482 27.9284 2.32991 28.3535C2.75499 28.7786 3.33152 29.0174 3.93268 29.0174H15.3327C15.5979 29.0174 15.8523 28.9121 16.0398 28.7245C16.2273 28.537 16.3327 28.2826 16.3327 28.0174C16.3327 27.7522 16.2273 27.4978 16.0398 27.3103C15.8523 27.1228 15.5979 27.0174 15.3327 27.0174ZM15.3327 1.66675C11.2847 1.66675 7.99935 4.95208 7.99935 9.00008C7.99935 13.0481 11.2847 16.3334 15.3327 16.3334C19.3807 16.3334 22.666 13.0481 22.666 9.00008C22.666 4.95208 19.3807 1.66675 15.3327 1.66675ZM15.3327 3.66675C18.2767 3.66675 20.666 6.05608 20.666 9.00008C20.666 11.9441 18.2767 14.3334 15.3327 14.3334C12.3887 14.3334 9.99935 11.9441 9.99935 9.00008C9.99935 6.05608 12.3887 3.66675 15.3327 3.66675ZM22.3327 23.3334V26.6667C22.3327 26.932 22.438 27.1863 22.6256 27.3739C22.8131 27.5614 23.0675 27.6667 23.3327 27.6667C23.5979 27.6667 23.8523 27.5614 24.0398 27.3739C24.2273 27.1863 24.3327 26.932 24.3327 26.6667V23.3334C24.3327 23.0682 24.2273 22.8138 24.0398 22.6263C23.8523 22.4388 23.5979 22.3334 23.3327 22.3334C23.0675 22.3334 22.8131 22.4388 22.6256 22.6263C22.438 22.8138 22.3327 23.0682 22.3327 23.3334Z" fill="#228CDB"/>
<path d="M23.3333 21.6667C24.0697 21.6667 24.6667 21.0697 24.6667 20.3333C24.6667 19.597 24.0697 19 23.3333 19C22.597 19 22 19.597 22 20.3333C22 21.0697 22.597 21.6667 23.3333 21.6667Z" fill="#228CDB"/>
<path fill-rule="evenodd" clip-rule="evenodd" d="M23.332 16.3335C19.468 16.3335 16.332 19.4695 16.332 23.3335C16.332 27.1975 19.468 30.3335 23.332 30.3335C27.196 30.3335 30.332 27.1975 30.332 23.3335C30.332 19.4695 27.196 16.3335 23.332 16.3335ZM23.332 18.3335C26.092 18.3335 28.332 20.5735 28.332 23.3335C28.332 26.0935 26.092 28.3335 23.332 28.3335C20.572 28.3335 18.332 26.0935 18.332 23.3335C18.332 20.5735 20.572 18.3335 23.332 18.3335Z" fill="#228CDB"/>
</svg>
