<svg width="17" height="20" viewBox="0 0 17 20" fill="none" xmlns="http://www.w3.org/2000/svg">
<path d="M16.67 0.474121V19.5255H1.19071V17.1627H0V15.972H1.19071V13.5813H0V12.3906H1.19071V7.62771H0V6.43699H1.19071V4.05557H0V2.86485H1.19071V0.474121H16.67ZM15.4793 1.66484H2.38143V18.3348H15.4793V1.66484ZM14.2886 5.23698H8.335V4.04626H14.2886V5.23698ZM14.2886 7.61841H8.335V6.42769H14.2886V7.61841ZM5.35821 15.9162C5.11635 15.9162 4.88999 15.8728 4.67913 15.786C4.46828 15.6991 4.28223 15.5751 4.12099 15.4139C3.95974 15.2526 3.83571 15.0666 3.74889 14.8557C3.66207 14.6449 3.61555 14.4154 3.60935 14.1673C3.60935 13.9255 3.65276 13.6991 3.73959 13.4883C3.82641 13.2774 3.95044 13.0945 4.11169 12.9394C4.27293 12.7844 4.45898 12.6572 4.66983 12.558C4.88069 12.4588 5.11015 12.4123 5.35821 12.4185C5.60008 12.4185 5.82644 12.465 6.03729 12.558C6.24815 12.651 6.4311 12.7751 6.58614 12.9301C6.74118 13.0851 6.86831 13.2712 6.96754 13.4883C7.06676 13.7053 7.11328 13.9317 7.10708 14.1673C7.10708 14.4092 7.06056 14.6356 6.96754 14.8464C6.87451 15.0573 6.75048 15.2433 6.59544 15.4046C6.4404 15.5658 6.25435 15.6898 6.03729 15.7767C5.82024 15.8635 5.59388 15.91 5.35821 15.9162ZM5.35821 13.5348C5.17837 13.5348 5.02953 13.5937 4.9117 13.7115C4.79387 13.8293 4.73185 13.9813 4.72565 14.1673C4.72565 14.3472 4.78456 14.496 4.90239 14.6139C5.02023 14.7317 5.17216 14.7937 5.35821 14.7999C5.53806 14.7999 5.6869 14.741 5.80473 14.6232C5.92256 14.5053 5.98458 14.3534 5.99078 14.1673C5.99078 13.9875 5.93187 13.8386 5.81403 13.7208C5.6962 13.603 5.54426 13.541 5.35821 13.5348ZM5.35821 7.5812C5.11635 7.5812 4.88999 7.53779 4.67913 7.45096C4.46828 7.36414 4.28223 7.24011 4.12099 7.07886C3.95974 6.91762 3.83571 6.73157 3.74889 6.52072C3.66207 6.30986 3.61555 6.0804 3.60935 5.83233C3.60935 5.59047 3.65276 5.36411 3.73959 5.15326C3.82641 4.9424 3.95044 4.75945 4.11169 4.60441C4.27293 4.44937 4.45898 4.32224 4.66983 4.22301C4.88069 4.12378 5.11015 4.07727 5.35821 4.08347C5.60008 4.08347 5.82644 4.12999 6.03729 4.22301C6.24815 4.31604 6.4311 4.44007 6.58614 4.59511C6.74118 4.75015 6.86831 4.9362 6.96754 5.15326C7.06676 5.37031 7.11328 5.59667 7.10708 5.83233C7.10708 6.0742 7.06056 6.30056 6.96754 6.51141C6.87451 6.72227 6.75048 6.90832 6.59544 7.06956C6.4404 7.2308 6.25435 7.35484 6.03729 7.44166C5.82024 7.52848 5.59388 7.575 5.35821 7.5812ZM5.35821 5.19977C5.17837 5.19977 5.02953 5.25868 4.9117 5.37651C4.79387 5.49435 4.73185 5.64629 4.72565 5.83233C4.72565 6.01218 4.78456 6.16102 4.90239 6.27885C5.02023 6.39668 5.17216 6.4587 5.35821 6.4649C5.53806 6.4649 5.6869 6.40599 5.80473 6.28816C5.92256 6.17032 5.98458 6.01838 5.99078 5.83233C5.99078 5.65249 5.93187 5.50365 5.81403 5.38582C5.6962 5.26799 5.54426 5.20597 5.35821 5.19977ZM14.2886 13.572H8.335V12.3813H14.2886V13.572ZM14.2886 15.9534H8.335V14.7627H14.2886V15.9534Z" fill="#BABABA"/>
</svg>
