<svg width="35" height="35" viewBox="0 0 35 35" fill="none" xmlns="http://www.w3.org/2000/svg">
<path d="M21.513 27.7083C21.513 29.925 19.7193 31.7188 17.5026 31.7188C15.2859 31.7188 13.4922 29.925 13.4922 27.7083C13.4922 25.4917 15.2859 23.6979 17.5026 23.6979C19.7193 23.6979 21.513 25.4917 21.513 27.7083ZM15.6797 27.7083C15.6797 28.7146 16.4964 29.5312 17.5026 29.5312C18.5089 29.5312 19.3255 28.7146 19.3255 27.7083C19.3255 26.7021 18.5089 25.8854 17.5026 25.8854C16.4964 25.8854 15.6797 26.7021 15.6797 27.7083Z" fill="#2D2D2D"/>
<path d="M21.513 7.29232C21.513 9.50898 19.7193 11.3027 17.5026 11.3027C15.2859 11.3027 13.4922 9.50898 13.4922 7.29232C13.4922 5.07565 15.2859 3.2819 17.5026 3.2819C19.7193 3.2819 21.513 5.07565 21.513 7.29232ZM15.6797 7.29232C15.6797 8.29857 16.4964 9.11523 17.5026 9.11523C18.5089 9.11523 19.3255 8.29857 19.3255 7.29232C19.3255 6.28607 18.5089 5.4694 17.5026 5.4694C16.4964 5.4694 15.6797 6.28607 15.6797 7.29232Z" fill="#2D2D2D"/>
<path d="M21.513 17.4993C21.513 19.716 19.7193 21.5098 17.5026 21.5098C15.2859 21.5098 13.4922 19.716 13.4922 17.4993C13.4922 15.2827 15.2859 13.4889 17.5026 13.4889C19.7193 13.4889 21.513 15.2827 21.513 17.4993ZM15.6797 17.4993C15.6797 18.5056 16.4964 19.3223 17.5026 19.3223C18.5089 19.3223 19.3255 18.5056 19.3255 17.4993C19.3255 16.4931 18.5089 15.6764 17.5026 15.6764C16.4964 15.6764 15.6797 16.4931 15.6797 17.4993Z" fill="#2D2D2D"/>
</svg>
