<svg width="38" height="38" viewBox="0 0 38 38" fill="none" xmlns="http://www.w3.org/2000/svg">
<path d="M18.9993 36.0209C9.61018 36.0209 1.97852 28.3892 1.97852 19.0001C1.97852 9.61091 9.61018 1.97925 18.9993 1.97925C28.3885 1.97925 36.0202 9.61091 36.0202 19.0001C36.0202 28.3892 28.3885 36.0209 18.9993 36.0209ZM18.9993 4.35425C10.9243 4.35425 4.35352 10.9251 4.35352 19.0001C4.35352 27.0751 10.9243 33.6459 18.9993 33.6459C27.0743 33.6459 33.6452 27.0751 33.6452 19.0001C33.6452 10.9251 27.0743 4.35425 18.9993 4.35425Z" fill="#AEAEAE"/>
<path d="M18.9993 20.5834C18.1127 20.5834 17.416 19.8709 17.416 19.0001C17.416 18.1292 18.1285 17.4167 18.9993 17.4167C19.8702 17.4167 20.5827 18.1292 20.5827 19.0001C20.5827 19.8709 19.886 20.5834 18.9993 20.5834Z" fill="#AEAEAE"/>
<path d="M25.3333 20.5834C24.4467 20.5834 23.75 19.8709 23.75 19.0001C23.75 18.1292 24.4625 17.4167 25.3333 17.4167C26.2042 17.4167 26.9167 18.1292 26.9167 19.0001C26.9167 19.8709 26.22 20.5834 25.3333 20.5834Z" fill="#AEAEAE"/>
<path d="M12.6673 20.5834C11.7807 20.5834 11.084 19.8709 11.084 19.0001C11.084 18.1292 11.7965 17.4167 12.6673 17.4167C13.5382 17.4167 14.2507 18.1292 14.2507 19.0001C14.2507 19.8709 13.554 20.5834 12.6673 20.5834Z" fill="#AEAEAE"/>
</svg>
