<svg width="24" height="24" viewBox="0 0 24 24" fill="none" xmlns="http://www.w3.org/2000/svg">
<path d="M16.0022 22.7498H8.00218C3.38218 22.7498 2.52218 20.5998 2.30218 18.5098L1.55218 10.4998C1.44218 9.44977 1.41218 7.89977 2.45218 6.73977C3.35218 5.73977 4.84218 5.25977 7.00218 5.25977H17.0022C19.1722 5.25977 20.6622 5.74977 21.5522 6.73977C22.5922 7.89977 22.5622 9.44977 22.4522 10.5098L21.7022 18.4998C21.4822 20.5998 20.6222 22.7498 16.0022 22.7498ZM7.00218 6.74977C5.31218 6.74977 4.15218 7.07977 3.56218 7.73977C3.07218 8.27977 2.91218 9.10977 3.04218 10.3498L3.79218 18.3598C3.96218 19.9398 4.39218 21.2498 8.00218 21.2498H16.0022C19.6022 21.2498 20.0422 19.9398 20.2122 18.3498L20.9622 10.3598C21.0922 9.10977 20.9322 8.27977 20.4422 7.73977C19.8522 7.07977 18.6922 6.74977 17.0022 6.74977H7.00218Z" fill="#214BD1"/>
<path d="M16 6.75C15.59 6.75 15.25 6.41 15.25 6V5.2C15.25 3.42 15.25 2.75 12.8 2.75H11.2C8.75 2.75 8.75 3.42 8.75 5.2V6C8.75 6.41 8.41 6.75 8 6.75C7.59 6.75 7.25 6.41 7.25 6V5.2C7.25 3.44 7.25 1.25 11.2 1.25H12.8C16.75 1.25 16.75 3.44 16.75 5.2V6C16.75 6.41 16.41 6.75 16 6.75Z" fill="#214BD1"/>
<path d="M12 16.75C9.25 16.75 9.25 15.05 9.25 14.03V13C9.25 11.59 9.59 11.25 11 11.25H13C14.41 11.25 14.75 11.59 14.75 13V14C14.75 15.04 14.75 16.75 12 16.75ZM10.75 12.75C10.75 12.83 10.75 12.92 10.75 13V14.03C10.75 15.06 10.75 15.25 12 15.25C13.25 15.25 13.25 15.09 13.25 14.02V13C13.25 12.92 13.25 12.83 13.25 12.75C13.17 12.75 13.08 12.75 13 12.75H11C10.92 12.75 10.83 12.75 10.75 12.75Z" fill="#214BD1"/>
<path d="M14.0034 14.7702C13.6334 14.7702 13.3034 14.4902 13.2634 14.1102C13.2134 13.7002 13.5034 13.3202 13.9134 13.2702C16.5534 12.9402 19.0834 11.9402 21.2134 10.3902C21.5434 10.1402 22.0134 10.2202 22.2634 10.5602C22.5034 10.8902 22.4334 11.3602 22.0934 11.6102C19.7534 13.3102 16.9934 14.4002 14.0934 14.7702C14.0634 14.7702 14.0334 14.7702 14.0034 14.7702Z" fill="#214BD1"/>
<path d="M9.99682 14.7809C9.96682 14.7809 9.93682 14.7809 9.90682 14.7809C7.16682 14.4709 4.49682 13.4709 2.18682 11.8909C1.84682 11.6609 1.75682 11.1909 1.98682 10.8509C2.21682 10.5109 2.68682 10.4209 3.02682 10.6509C5.13682 12.0909 7.56682 13.0009 10.0668 13.2909C10.4768 13.3409 10.7768 13.7109 10.7268 14.1209C10.6968 14.5009 10.3768 14.7809 9.99682 14.7809Z" fill="#214BD1"/>
</svg>
