<svg width="32" height="32" viewBox="0 0 32 32" fill="none" xmlns="http://www.w3.org/2000/svg">
<path d="M5.5 28C5.5 29.103 6.397 30 7.5 30H24.5C25.603 30 26.5 29.103 26.5 28V26.282C26.485 25.623 25.513 25.6255 25.5 26.282V28C25.5 28.5515 25.0515 29 24.5 29H7.5C6.9485 29 6.5 28.5515 6.5 28V18C6.496 17.35 5.508 17.338 5.5 18V28ZM20 2H10.5C10.368 2 10.238 2.0545 10.146 2.147L5.647 6.646C5.60042 6.69244 5.56346 6.74761 5.53823 6.80835C5.51301 6.8691 5.50001 6.93423 5.5 7V15.5C5.5 15.6326 5.55268 15.7598 5.64645 15.8536C5.74021 15.9473 5.86739 16 6 16C6.13261 16 6.25979 15.9473 6.35355 15.8536C6.44732 15.7598 6.5 15.6326 6.5 15.5V7.5H9C10.103 7.5 11 6.603 11 5.5V3H20C20.65 2.9935 20.663 2.01 20 2ZM10 5.5C10 6.0515 9.5515 6.5 9 6.5H7.207L10 3.707V5.5ZM26.5 4C26.5 2.897 25.603 2 24.5 2H22.5C21.8425 2.0135 21.842 2.9875 22.5 3H24.5C25.0515 3 25.5 3.4485 25.5 4V23.782C25.507 24.428 26.489 24.4485 26.5 23.782V4ZM13.5 16.25C13.512 16.908 14.489 16.9065 14.5 16.25C14.4805 15.303 15.4335 14.5485 16.36 14.791C17.646 15.067 17.9075 16.904 16.769 17.5385C15.974 18.0135 15.5 18.8255 15.5 19.7115V20.25C15.5 20.3826 15.5527 20.5098 15.6464 20.6036C15.7402 20.6973 15.8674 20.75 16 20.75C16.1326 20.75 16.2598 20.6973 16.3536 20.6036C16.4473 20.5098 16.5 20.3826 16.5 20.25V19.7115C16.5 19.1815 16.7925 18.6895 17.282 18.3965C19.18 17.3015 18.748 14.2845 16.582 13.8165C15.0535 13.4215 13.463 14.679 13.5 16.25Z" fill="#228CDB"/>
<path d="M16.0006 21.75C15.3436 21.761 15.3436 22.739 16.0006 22.75C16.6576 22.739 16.6576 21.761 16.0006 21.75Z" fill="#228CDB"/>
<path d="M9 18.25C9 22.11 12.14 25.25 16 25.25C25.2865 24.8655 25.284 11.633 16 11.25C12.14 11.25 9 14.39 9 18.25ZM22 18.25C22 21.5585 19.3085 24.25 16 24.25C8.04 23.9205 8.0425 12.578 16 12.25C19.3085 12.25 22 14.9415 22 18.25Z" fill="#228CDB"/>
</svg>
