<svg width="20" height="20" viewBox="0 0 20 20" fill="none" xmlns="http://www.w3.org/2000/svg">
<path d="M12.292 19.5251H7.37449V16.7367C6.51988 16.4438 5.72832 16.0009 5.0395 15.4301L2.54469 16.8263L0.0859375 12.6988L2.57993 11.3058C2.4161 10.4426 2.4161 9.55763 2.57993 8.69438L0.0859375 7.30135L2.54469 3.17385L5.0395 4.57005C5.72832 3.99929 6.51988 3.55638 7.37449 3.26354V0.475098H12.292V3.26354C13.1466 3.55638 13.9382 3.99929 14.627 4.57005L17.1218 3.17385L19.5805 7.30135L17.0866 8.69438C17.2504 9.55763 17.2504 10.4426 17.0866 11.3058L19.5805 12.6988L17.1218 16.8263L14.627 15.4309C13.9381 16.0014 13.1465 16.444 12.292 16.7367V19.5251ZM9.01366 17.9376H10.6528V15.5349L11.2683 15.3809C12.2781 15.1276 13.1971 14.6119 13.9262 13.8895L14.3713 13.4505L16.521 14.6531L17.3406 13.2783L15.1933 12.0773L15.3622 11.4852C15.6397 10.5112 15.6397 9.48262 15.3622 8.50864L15.1933 7.9165L17.3406 6.71556L16.521 5.34079L14.3713 6.54649L13.9262 6.11072C13.1967 5.38948 12.2777 4.87487 11.2683 4.62244L10.6528 4.46528V2.0626H9.01366V4.46528L8.39815 4.61927C7.38841 4.87259 6.46935 5.38832 5.74024 6.11072L5.29521 6.54967L3.14544 5.34396L2.32586 6.71874L4.47317 7.91968L4.30433 8.51182C4.02679 9.4858 4.02679 10.5144 4.30433 11.4884L4.47317 12.0805L2.32586 13.2815L3.14544 14.6562L5.29521 13.4537L5.74024 13.8926C6.46974 14.6139 7.38877 15.1285 8.39815 15.3809L9.01366 15.5349V17.9376ZM9.83324 13.1751C9.18485 13.1751 8.55102 12.9889 8.0119 12.64C7.47278 12.2911 7.05259 11.7953 6.80446 11.2151C6.55633 10.635 6.49141 9.99658 6.6179 9.38069C6.7444 8.7648 7.05663 8.19907 7.51511 7.75503C7.97359 7.311 8.55774 7.00861 9.19367 6.8861C9.82961 6.7636 10.4888 6.82647 11.0878 7.06678C11.6868 7.30709 12.1988 7.71404 12.5591 8.23616C12.9193 8.75829 13.1116 9.37214 13.1116 10.0001C13.1116 10.8422 12.7662 11.6497 12.1514 12.2452C11.5366 12.8406 10.7027 13.1751 9.83324 13.1751ZM9.83324 8.4126C9.50904 8.4126 9.19213 8.5057 8.92257 8.68014C8.65301 8.85458 8.44291 9.10251 8.31885 9.39259C8.19478 9.68267 8.16232 10.0019 8.22557 10.3098C8.28882 10.6177 8.44493 10.9006 8.67418 11.1226C8.90342 11.3446 9.19549 11.4958 9.51346 11.5571C9.83142 11.6183 10.161 11.5869 10.4605 11.4668C10.76 11.3466 11.016 11.1431 11.1962 10.8821C11.3763 10.621 11.4724 10.3141 11.4724 10.0001C11.4724 9.57907 11.2997 9.17528 10.9923 8.87757C10.6849 8.57985 10.268 8.4126 9.83324 8.4126Z" fill="#BABABA"/>
</svg>
