<svg width="32" height="32" viewBox="0 0 32 32" fill="none" xmlns="http://www.w3.org/2000/svg">
<path d="M16 21C13.24 21 11 18.76 11 16C11 13.24 13.24 11 16 11C18.76 11 21 13.24 21 16C21 18.76 18.76 21 16 21ZM16 13C14.3467 13 13 14.3467 13 16C13 17.6533 14.3467 19 16 19C17.6533 19 19 17.6533 19 16C19 14.3467 17.6533 13 16 13Z" fill="#F4F4F4"/>
<path d="M20.2794 29.5866C19.9993 29.5866 19.7193 29.5466 19.4394 29.48C18.6127 29.2533 17.9193 28.7333 17.4793 28L17.3193 27.7333C16.5327 26.3733 15.4527 26.3733 14.666 27.7333L14.5194 27.9866C14.0793 28.7333 13.386 29.2666 12.5593 29.48C11.7193 29.7066 10.8527 29.5866 10.1193 29.1466L7.82602 27.8266C7.01268 27.36 6.42602 26.6 6.17268 25.68C5.93268 24.76 6.05268 23.8133 6.51935 23C6.90602 22.32 7.01268 21.7066 6.78602 21.32C6.55935 20.9333 5.98602 20.7066 5.19935 20.7066C3.25268 20.7066 1.66602 19.12 1.66602 17.1733V14.8266C1.66602 12.88 3.25268 11.2933 5.19935 11.2933C5.98602 11.2933 6.55935 11.0666 6.78602 10.68C7.01268 10.2933 6.91935 9.67998 6.51935 8.99998C6.05268 8.18664 5.93268 7.22664 6.17268 6.31997C6.41268 5.39997 6.99935 4.63998 7.82602 4.17331L10.1327 2.85331C11.6393 1.95998 13.626 2.47997 14.5327 4.01331L14.6927 4.27997C15.4794 5.63998 16.5594 5.63998 17.346 4.27997L17.4927 4.02664C18.3993 2.47997 20.386 1.95998 21.906 2.86664L24.1993 4.18664C25.0127 4.65331 25.5993 5.41331 25.8527 6.33331C26.0927 7.25331 25.9727 8.19998 25.506 9.01331C25.1193 9.69331 25.0127 10.3066 25.2393 10.6933C25.466 11.08 26.0394 11.3066 26.826 11.3066C28.7727 11.3066 30.3594 12.8933 30.3594 14.84V17.1866C30.3594 19.1333 28.7727 20.72 26.826 20.72C26.0394 20.72 25.466 20.9466 25.2393 21.3333C25.0127 21.72 25.106 22.3333 25.506 23.0133C25.9727 23.8266 26.106 24.7866 25.8527 25.6933C25.6127 26.6133 25.026 27.3733 24.1993 27.84L21.8927 29.16C21.386 29.44 20.8393 29.5866 20.2794 29.5866ZM15.9993 24.6533C17.186 24.6533 18.2927 25.4 19.0527 26.72L19.1993 26.9733C19.3593 27.2533 19.626 27.4533 19.946 27.5333C20.266 27.6133 20.586 27.5733 20.8527 27.4133L23.1594 26.08C23.506 25.88 23.7727 25.5466 23.8793 25.1466C23.986 24.7466 23.9327 24.3333 23.7327 23.9866C22.9727 22.68 22.8794 21.3333 23.466 20.3066C24.0527 19.28 25.266 18.6933 26.786 18.6933C27.6393 18.6933 28.3193 18.0133 28.3193 17.16V14.8133C28.3193 13.9733 27.6393 13.28 26.786 13.28C25.266 13.28 24.0527 12.6933 23.466 11.6666C22.8794 10.64 22.9727 9.29331 23.7327 7.98664C23.9327 7.63998 23.986 7.22664 23.8793 6.82664C23.7727 6.42664 23.5193 6.10664 23.1727 5.89331L20.866 4.57331C20.2927 4.22664 19.5327 4.42664 19.186 5.01331L19.0393 5.26664C18.2793 6.58664 17.1727 7.33331 15.986 7.33331C14.7993 7.33331 13.6927 6.58664 12.9327 5.26664L12.786 4.99997C12.4527 4.43998 11.706 4.23997 11.1327 4.57331L8.82602 5.90664C8.47935 6.10664 8.21268 6.43998 8.10602 6.83998C7.99935 7.23997 8.05268 7.65331 8.25268 7.99998C9.01268 9.30664 9.10602 10.6533 8.51935 11.68C7.93268 12.7066 6.71935 13.2933 5.19935 13.2933C4.34602 13.2933 3.66602 13.9733 3.66602 14.8266V17.1733C3.66602 18.0133 4.34602 18.7066 5.19935 18.7066C6.71935 18.7066 7.93268 19.2933 8.51935 20.32C9.10602 21.3466 9.01268 22.6933 8.25268 24C8.05268 24.3466 7.99935 24.76 8.10602 25.16C8.21268 25.56 8.46602 25.88 8.81268 26.0933L11.1193 27.4133C11.3993 27.5866 11.7327 27.6266 12.0393 27.5466C12.3593 27.4666 12.626 27.2533 12.7993 26.9733L12.946 26.72C13.706 25.4133 14.8127 24.6533 15.9993 24.6533Z" fill="#F4F4F4"/>
</svg>
