<svg width="19" height="20" viewBox="0 0 19 20" fill="none" xmlns="http://www.w3.org/2000/svg">
<path d="M1 18.335V16.4828C1 15.5003 1.39029 14.5581 2.08501 13.8634C2.77972 13.1687 3.72196 12.7784 4.70444 12.7784H8.40889C9.39137 12.7784 10.3336 13.1687 11.0283 13.8634C11.723 14.5581 12.1133 15.5003 12.1133 16.4828V18.335M13.0394 1.78543C13.8363 1.98946 14.5426 2.45288 15.0469 3.10265C15.5513 3.75242 15.825 4.55157 15.825 5.37411C15.825 6.19666 15.5513 6.99581 15.0469 7.64558C14.5426 8.29535 13.8363 8.75877 13.0394 8.96279M17.67 18.335V16.4828C17.6653 15.6652 17.3902 14.8721 16.8877 14.2272C16.3851 13.5822 15.6833 13.1217 14.8917 12.9173M2.85222 5.36948C2.85222 6.35196 3.24251 7.2942 3.93723 7.98892C4.63195 8.68364 5.57419 9.07393 6.55667 9.07393C7.53915 9.07393 8.48139 8.68364 9.1761 7.98892C9.87082 7.2942 10.2611 6.35196 10.2611 5.36948C10.2611 4.387 9.87082 3.44476 9.1761 2.75005C8.48139 2.05533 7.53915 1.66504 6.55667 1.66504C5.57419 1.66504 4.63195 2.05533 3.93723 2.75005C3.24251 3.44476 2.85222 4.387 2.85222 5.36948Z" stroke="#BABABA" stroke-width="2" stroke-linecap="round" stroke-linejoin="round"/>
</svg>
