<svg width="25" height="30" viewBox="0 0 25 30" fill="none" xmlns="http://www.w3.org/2000/svg">
<path d="M12.4533 15.9993C8.22667 15.9993 4.78667 12.5593 4.78667 8.33268C4.78667 4.10602 8.22667 0.666016 12.4533 0.666016C16.68 0.666016 20.12 4.10602 20.12 8.33268C20.12 12.5593 16.68 15.9993 12.4533 15.9993ZM12.4533 2.66602C9.33333 2.66602 6.78667 5.21268 6.78667 8.33268C6.78667 11.4527 9.33333 13.9993 12.4533 13.9993C15.5733 13.9993 18.12 11.4527 18.12 8.33268C18.12 5.21268 15.5733 2.66602 12.4533 2.66602ZM23.9067 29.3327C23.36 29.3327 22.9067 28.8794 22.9067 28.3327C22.9067 23.7327 18.2133 19.9993 12.4533 19.9993C6.69333 19.9993 2 23.7327 2 28.3327C2 28.8794 1.54667 29.3327 1 29.3327C0.453333 29.3327 0 28.8794 0 28.3327C0 22.6394 5.58667 17.9993 12.4533 17.9993C19.32 17.9993 24.9067 22.6394 24.9067 28.3327C24.9067 28.8794 24.4533 29.3327 23.9067 29.3327Z" fill="#228CDB"/>
</svg>
