<svg width="25" height="23" viewBox="0 0 25 23" fill="none" xmlns="http://www.w3.org/2000/svg">
<path d="M11.9383 17C11.9385 17.5046 11.7479 17.9906 11.4048 18.3605C11.0617 18.7305 10.5915 18.9572 10.0883 18.995L9.93832 19H7.93832C7.43375 19.0002 6.94776 18.8096 6.57778 18.4665C6.2078 18.1234 5.98117 17.6532 5.94333 17.15L5.93832 17H11.9383ZM8.93832 9.54067e-10C10.7533 -2.9945e-05 12.4973 0.704894 13.8026 1.96607C15.1078 3.22726 15.8721 4.94609 15.9343 6.76L15.9383 7V10.764L17.7603 14.408C17.8398 14.567 17.8796 14.7429 17.8763 14.9206C17.873 15.0984 17.8266 15.2727 17.7412 15.4286C17.6558 15.5845 17.5338 15.7174 17.3858 15.8158C17.2378 15.9143 17.0681 15.9754 16.8913 15.994L16.7763 16H1.10033C0.922489 16.0001 0.747292 15.957 0.589746 15.8745C0.4322 15.792 0.297004 15.6725 0.195742 15.5264C0.0944803 15.3802 0.0301725 15.2116 0.00832937 15.0351C-0.0135138 14.8586 0.00775918 14.6795 0.0703251 14.513L0.116325 14.408L1.93833 10.764V7C1.93833 5.14348 2.67582 3.36301 3.98858 2.05025C5.30133 0.737498 7.08181 9.54069e-10 8.93832 9.54067e-10Z" fill="#BABABA"/>
<circle cx="17.5" cy="15.5" r="7" fill="#F30000" stroke="white"/>
<path d="M13.38 12.6V11.77H15.26V19H14.34V12.6H13.38ZM16.7131 18.27C17.5598 17.59 18.2231 17.0333 18.7031 16.6C19.1831 16.16 19.5865 15.7033 19.9131 15.23C20.2465 14.75 20.4131 14.28 20.4131 13.82C20.4131 13.3867 20.3065 13.0467 20.0931 12.8C19.8865 12.5467 19.5498 12.42 19.0831 12.42C18.6298 12.42 18.2765 12.5633 18.0231 12.85C17.7765 13.13 17.6431 13.5067 17.6231 13.98H16.7431C16.7698 13.2333 16.9965 12.6567 17.4231 12.25C17.8498 11.8433 18.3998 11.64 19.0731 11.64C19.7598 11.64 20.3031 11.83 20.7031 12.21C21.1098 12.59 21.3131 13.1133 21.3131 13.78C21.3131 14.3333 21.1465 14.8733 20.8131 15.4C20.4865 15.92 20.1131 16.38 19.6931 16.78C19.2731 17.1733 18.7365 17.6333 18.0831 18.16H21.5231V18.92H16.7131V18.27Z" fill="white"/>
</svg>
