<svg width="32" height="32" viewBox="0 0 32 32" fill="none" xmlns="http://www.w3.org/2000/svg">
<g clip-path="url(#clip0_4155_3293)">
<path d="M16.0744 28.0413C18.139 28.0413 19.8128 26.3675 19.8128 24.3029C19.8128 22.2382 18.139 20.5645 16.0744 20.5645C14.0097 20.5645 12.3359 22.2382 12.3359 24.3029C12.3359 26.3675 14.0097 28.0413 16.0744 28.0413Z" fill="#228CDB"/>
<path d="M25.0086 15.2951C24.9531 15.2381 24.8946 15.1873 24.8376 15.1349L24.6696 14.9762C24.6419 14.9469 24.611 14.9253 24.5756 14.8976C22.2562 12.7832 19.2109 11.6445 16.0732 11.7182C12.9356 11.792 9.94712 13.0726 7.72961 15.2936L7.18872 15.836L6.43981 16.5849C6.00193 17.0255 5.75666 17.6217 5.75782 18.2428C5.75897 18.8639 6.00646 19.4592 6.44597 19.8981C6.66308 20.1161 6.92101 20.2891 7.20503 20.4074C7.48904 20.5257 7.79358 20.5869 8.10125 20.5875C8.40892 20.5881 8.71368 20.528 8.99814 20.4108C9.28259 20.2935 9.54116 20.1214 9.75908 19.9042L11.0504 18.6129C12.4627 17.2049 14.3754 16.4142 16.3696 16.4139C18.3637 16.4136 20.2767 17.2038 21.6894 18.6113L22.6216 19.5144C23.0584 19.9484 23.6495 20.1913 24.2652 20.1899C24.8808 20.1884 25.4708 19.9427 25.9055 19.5066C26.1221 19.2915 26.294 19.0356 26.4112 18.7536C26.5283 18.4717 26.5885 18.1693 26.5881 17.864C26.5901 17.5596 26.5313 17.258 26.4151 16.9767C26.299 16.6954 26.1278 16.4401 25.9116 16.2259L25.0086 15.2951Z" fill="#228CDB"/>
<path d="M31.3794 10.6741L30.6027 9.89743C30.5996 9.89435 30.5981 9.88972 30.5919 9.88818L29.9786 9.27179C29.8722 9.16732 29.7555 9.07387 29.6303 8.99287C21.7513 2.07541 9.7671 2.28807 2.13925 9.62622C2.10226 9.66012 2.06066 9.68323 2.02367 9.72022L0.621382 11.124C0.423548 11.3227 0.266835 11.5585 0.160213 11.8178C0.0535906 12.0772 -0.00084877 12.355 1.0004e-05 12.6354C0.000868778 12.9157 0.0570088 13.1932 0.165218 13.4519C0.273426 13.7106 0.43158 13.9453 0.630628 14.1428C0.828211 14.3418 1.06309 14.4998 1.32181 14.6079C1.58053 14.716 1.85803 14.772 2.13842 14.7727C2.41881 14.7734 2.69659 14.7188 2.95586 14.6121C3.21514 14.5053 3.45081 14.3485 3.64941 14.1505L5.0517 12.7498C5.06095 12.7375 5.06865 12.7267 5.0779 12.719C11.2464 6.75999 21.0317 6.72301 27.2495 12.5972L28.3529 13.7021C28.7546 14.1012 29.2983 14.3246 29.8646 14.3231C30.4309 14.3217 30.9735 14.0955 31.3732 13.6944C31.7737 13.2943 31.9993 12.7517 32.0005 12.1855C32.0016 11.6194 31.7783 11.0758 31.3794 10.6741Z" fill="#228CDB"/>
</g>
<defs>
<clipPath id="clip0_4155_3293">
<rect width="32" height="32" fill="white"/>
</clipPath>
</defs>
</svg>
