<svg width="32" height="32" viewBox="0 0 32 32" fill="none" xmlns="http://www.w3.org/2000/svg">
<path d="M16.4604 26.7501C16.2904 26.7501 16.1204 26.7501 15.9504 26.7401C10.3504 26.4901 5.67044 21.9801 5.28044 16.4801C4.94044 11.7601 7.67044 7.35011 12.0704 5.50011C13.3204 4.98011 13.9804 5.38011 14.2604 5.67011C14.5404 5.95011 14.9304 6.60011 14.4104 7.79011C13.9504 8.85011 13.7204 9.98011 13.7304 11.1401C13.7504 15.5701 17.4304 19.3301 21.9204 19.5101C22.5704 19.5401 23.2104 19.4901 23.8304 19.3801C25.1504 19.1401 25.7004 19.6701 25.9104 20.0101C26.1204 20.3501 26.3604 21.0801 25.5604 22.1601C23.4404 25.0601 20.0704 26.7501 16.4604 26.7501ZM6.77044 16.3701C7.11044 21.1301 11.1704 25.0301 16.0104 25.2401C19.3004 25.4001 22.4204 23.9001 24.3404 21.2801C24.4904 21.0701 24.5604 20.9201 24.5904 20.8401C24.5004 20.8301 24.3404 20.8201 24.0904 20.8701C23.3604 21.0001 22.6004 21.0501 21.8504 21.0201C16.5704 20.8101 12.2504 16.3801 12.2204 11.1601C12.2204 9.78011 12.4904 8.45011 13.0404 7.20011C13.1404 6.98011 13.1604 6.83011 13.1704 6.75011C13.0804 6.75011 12.9204 6.77011 12.6604 6.88011C8.85044 8.48011 6.49044 12.3001 6.77044 16.3701Z" fill="#161616"/>
</svg>
