<svg width="32" height="32" viewBox="0 0 32 32" fill="none" xmlns="http://www.w3.org/2000/svg">
<path d="M16 26.75C10.07 26.75 5.25 21.93 5.25 16C5.25 10.07 10.07 5.25 16 5.25C21.93 5.25 26.75 10.07 26.75 16C26.75 21.93 21.93 26.75 16 26.75ZM16 6.75C10.9 6.75 6.75 10.9 6.75 16C6.75 21.1 10.9 25.25 16 25.25C21.1 25.25 25.25 21.1 25.25 16C25.25 10.9 21.1 6.75 16 6.75Z" fill="#292D32"/>
<path d="M16 17.75C15.59 17.75 15.25 17.41 15.25 17V12C15.25 11.59 15.59 11.25 16 11.25C16.41 11.25 16.75 11.59 16.75 12V17C16.75 17.41 16.41 17.75 16 17.75Z" fill="#292D32"/>
<path d="M16 20.9999C15.87 20.9999 15.74 20.9699 15.62 20.9199C15.5 20.8699 15.39 20.7999 15.29 20.7099C15.2 20.6099 15.13 20.5099 15.08 20.3799C15.03 20.2599 15 20.1299 15 19.9999C15 19.8699 15.03 19.7399 15.08 19.6199C15.13 19.4999 15.2 19.3899 15.29 19.2899C15.39 19.1999 15.5 19.1299 15.62 19.0799C15.86 18.9799 16.14 18.9799 16.38 19.0799C16.5 19.1299 16.61 19.1999 16.71 19.2899C16.8 19.3899 16.87 19.4999 16.92 19.6199C16.97 19.7399 17 19.8699 17 19.9999C17 20.1299 16.97 20.2599 16.92 20.3799C16.87 20.5099 16.8 20.6099 16.71 20.7099C16.61 20.7999 16.5 20.8699 16.38 20.9199C16.26 20.9699 16.13 20.9999 16 20.9999Z" fill="#292D32"/>
</svg>
