<svg width="32" height="32" viewBox="0 0 32 32" fill="none" xmlns="http://www.w3.org/2000/svg">
<path d="M20.9897 13.71H11.0098C10.5998 13.71 10.2598 13.37 10.2598 12.96C10.2598 12.55 10.5998 12.21 11.0098 12.21H20.9897C21.3997 12.21 21.7397 12.55 21.7397 12.96C21.7397 13.37 21.3997 13.71 20.9897 13.71Z" fill="#292D32"/>
<path d="M16 13.71C15.59 13.71 15.25 13.37 15.25 12.96V11.28C15.25 10.87 15.59 10.53 16 10.53C16.41 10.53 16.75 10.87 16.75 11.28V12.96C16.75 13.37 16.41 13.71 16 13.71Z" fill="#292D32"/>
<path d="M11 21.4699C10.59 21.4699 10.25 21.1299 10.25 20.7199C10.25 20.3099 10.59 19.9699 11 19.9699C14.72 19.9699 17.75 16.8199 17.75 12.9399C17.75 12.5299 18.09 12.1899 18.5 12.1899C18.91 12.1899 19.25 12.5299 19.25 12.9399C19.25 17.6499 15.55 21.4699 11 21.4699Z" fill="#292D32"/>
<path d="M21.0012 21.47C19.0312 21.47 17.2012 20.49 15.8612 18.7C15.6112 18.37 15.6812 17.9 16.0112 17.65C16.3412 17.4 16.8112 17.47 17.0612 17.8C18.1212 19.2 19.5212 19.97 21.0112 19.97C21.4212 19.97 21.7612 20.31 21.7612 20.72C21.7612 21.13 21.4112 21.47 21.0012 21.47Z" fill="#292D32"/>
<path d="M16 26.75C10.07 26.75 5.25 21.93 5.25 16C5.25 10.07 10.07 5.25 16 5.25C21.93 5.25 26.75 10.07 26.75 16C26.75 21.93 21.93 26.75 16 26.75ZM16 6.75C10.9 6.75 6.75 10.9 6.75 16C6.75 21.1 10.9 25.25 16 25.25C21.1 25.25 25.25 21.1 25.25 16C25.25 10.9 21.1 6.75 16 6.75Z" fill="#292D32"/>
</svg>
