<svg width="30" height="30" viewBox="0 0 30 30" fill="none" xmlns="http://www.w3.org/2000/svg">
<path d="M29.71 6.29002L23.71 0.290017C23.6166 0.197335 23.5057 0.12401 23.3839 0.0742455C23.2621 0.0244809 23.1316 -0.000744179 23 1.67143e-05H3C2.20435 1.67143e-05 1.44129 0.316087 0.87868 0.878696C0.31607 1.44131 0 2.20437 0 3.00002V27C0 27.7957 0.31607 28.5587 0.87868 29.1213C1.44129 29.6839 2.20435 30 3 30H27C27.7956 30 28.5587 29.6839 29.1213 29.1213C29.6839 28.5587 30 27.7957 30 27V7.00002C30.0008 6.86841 29.9755 6.73795 29.9258 6.61611C29.876 6.49427 29.8027 6.38346 29.71 6.29002ZM19 2.00002V8.00002H11V2.00002H19ZM7 28V21C7 20.7348 7.10536 20.4804 7.29289 20.2929C7.48043 20.1054 7.73478 20 8 20H22C22.2652 20 22.5196 20.1054 22.7071 20.2929C22.8946 20.4804 23 20.7348 23 21V28H7ZM28 27C28 27.2652 27.8946 27.5196 27.7071 27.7071C27.5196 27.8947 27.2652 28 27 28H25V21C25 20.2044 24.6839 19.4413 24.1213 18.8787C23.5587 18.3161 22.7956 18 22 18H8C7.20435 18 6.44129 18.3161 5.87868 18.8787C5.31607 19.4413 5 20.2044 5 21V28H3C2.73478 28 2.48043 27.8947 2.29289 27.7071C2.10536 27.5196 2 27.2652 2 27V3.00002C2 2.7348 2.10536 2.48045 2.29289 2.29291C2.48043 2.10537 2.73478 2.00002 3 2.00002H9V8.00002C9 8.53045 9.21071 9.03916 9.58579 9.41423C9.96086 9.7893 10.4696 10 11 10H19C19.5304 10 20.0391 9.7893 20.4142 9.41423C20.7893 9.03916 21 8.53045 21 8.00002V2.00002H22.59L28 7.41002V27Z" fill="#161616"/>
</svg>
