<svg width="32" height="32" viewBox="0 0 32 32" fill="none" xmlns="http://www.w3.org/2000/svg">
<path d="M16.0004 26.7599C14.9104 26.7599 13.8304 26.4399 12.9804 25.8099L8.68039 22.5999C7.54039 21.7499 6.65039 19.9799 6.65039 18.5599V11.1199C6.65039 9.57994 7.78039 7.93994 9.23039 7.39994L14.2204 5.52994C15.2104 5.15994 16.7704 5.15994 17.7604 5.52994L22.7604 7.39994C24.2104 7.93994 25.3404 9.57994 25.3404 11.1199V18.5499C25.3404 19.9699 24.4504 21.7399 23.3104 22.5899L19.0104 25.7999C18.1704 26.4399 17.0904 26.7599 16.0004 26.7599ZM14.7504 6.93994L9.76039 8.80994C8.90039 9.12994 8.15039 10.2099 8.15039 11.1299V18.5599C8.15039 19.5099 8.82039 20.8399 9.57039 21.3999L13.8704 24.6099C15.0204 25.4699 16.9704 25.4699 18.1204 24.6099L22.4204 21.3999C23.1804 20.8299 23.8404 19.4999 23.8404 18.5599V11.1199C23.8404 10.2099 23.0904 9.12994 22.2304 8.79994L17.2404 6.92994C16.5804 6.68994 15.4204 6.68994 14.7504 6.93994Z" fill="#292D32"/>
<path d="M16 17.25C14.48 17.25 13.25 16.02 13.25 14.5C13.25 12.98 14.48 11.75 16 11.75C17.52 11.75 18.75 12.98 18.75 14.5C18.75 16.02 17.52 17.25 16 17.25ZM16 13.25C15.31 13.25 14.75 13.81 14.75 14.5C14.75 15.19 15.31 15.75 16 15.75C16.69 15.75 17.25 15.19 17.25 14.5C17.25 13.81 16.69 13.25 16 13.25Z" fill="#292D32"/>
<path d="M16 20.25C15.59 20.25 15.25 19.91 15.25 19.5V16.5C15.25 16.09 15.59 15.75 16 15.75C16.41 15.75 16.75 16.09 16.75 16.5V19.5C16.75 19.91 16.41 20.25 16 20.25Z" fill="#292D32"/>
</svg>
