<svg width="32" height="32" viewBox="0 0 32 32" fill="none" xmlns="http://www.w3.org/2000/svg">
<path d="M16.0007 1.33399C13.0999 1.33399 10.2642 2.19417 7.85229 3.80577C5.44037 5.41736 3.56051 7.70798 2.45042 10.388C1.34034 13.0679 1.04989 16.0169 1.61581 18.862C2.18172 21.707 3.57859 24.3204 5.62976 26.3716C7.68093 28.4227 10.2943 29.8196 13.1393 30.3855C15.9844 30.9514 18.9334 30.661 21.6133 29.5509C24.2933 28.4408 26.584 26.5609 28.1955 24.149C29.8071 21.7371 30.6673 18.9014 30.6673 16.0007C30.6684 14.0743 30.2897 12.1666 29.553 10.3867C28.8163 8.6068 27.736 6.98954 26.3739 5.62741C25.0118 4.26527 23.3945 3.18497 21.6146 2.44828C19.8347 1.71158 17.927 1.33293 16.0007 1.33399ZM14.6673 8.00065C14.6673 7.64703 14.8078 7.30789 15.0578 7.05784C15.3079 6.8078 15.647 6.66732 16.0007 6.66732C16.3543 6.66732 16.6934 6.8078 16.9435 7.05784C17.1935 7.30789 17.334 7.64703 17.334 8.00065V13.334C17.334 13.6876 17.1935 14.0267 16.9435 14.2768C16.6934 14.5268 16.3543 14.6673 16.0007 14.6673C15.647 14.6673 15.3079 14.5268 15.0578 14.2768C14.8078 14.0267 14.6673 13.6876 14.6673 13.334V8.00065ZM22.6007 22.6007C20.8502 24.3511 18.4761 25.3345 16.0007 25.3345C13.5252 25.3345 11.1511 24.3511 9.40066 22.6007C7.65023 20.8502 6.66685 18.4761 6.66685 16.0007C6.66685 13.5252 7.65023 11.1511 9.40066 9.40065C9.65047 9.15232 9.98841 9.01293 10.3407 9.01293C10.6929 9.01293 11.0308 9.15232 11.2807 9.40065C11.4072 9.52233 11.5079 9.6683 11.5767 9.82983C11.6454 9.99135 11.6809 10.1651 11.6809 10.3407C11.6809 10.5162 11.6454 10.69 11.5767 10.8515C11.5079 11.013 11.4072 11.159 11.2807 11.2807C10.35 12.2137 9.71673 13.4016 9.46086 14.6943C9.20499 15.9871 9.338 17.3267 9.84307 18.5439C10.3482 19.761 11.2026 20.8012 12.2986 21.533C13.3946 22.2648 14.6828 22.6554 16.0007 22.6554C17.3185 22.6554 18.6067 22.2648 19.7027 21.533C20.7987 20.8012 21.6532 19.761 22.1582 18.5439C22.6633 17.3267 22.7963 15.9871 22.5405 14.6943C22.2846 13.4016 21.6513 12.2137 20.7207 11.2807C20.5941 11.159 20.4934 11.013 20.4247 10.8515C20.3559 10.69 20.3204 10.5162 20.3204 10.3407C20.3204 10.1651 20.3559 9.99135 20.4247 9.82983C20.4934 9.6683 20.5941 9.52233 20.7207 9.40065C20.9705 9.15232 21.3084 9.01293 21.6607 9.01293C22.0129 9.01293 22.3508 9.15232 22.6007 9.40065C23.4674 10.2673 24.155 11.2963 24.6241 12.4287C25.0932 13.5612 25.3347 14.7749 25.3347 16.0007C25.3347 17.2264 25.0932 18.4402 24.6241 19.5726C24.155 20.705 23.4674 21.734 22.6007 22.6007Z" fill="#E61419"/>
</svg>
