<svg width="32" height="32" viewBox="0 0 32 32" fill="none" xmlns="http://www.w3.org/2000/svg">
<path d="M18.7691 23.75H13.2591C12.8191 23.75 12.2591 23.7 11.8891 23.32C11.5291 22.95 11.5391 22.49 11.5491 22.18V21.29C9.02914 19.61 7.36914 16.69 7.36914 13.91C7.36914 11.28 8.54914 8.82005 10.5991 7.17005C12.6491 5.52005 15.3391 4.90005 17.9691 5.48005C20.4691 6.03005 22.6291 7.70005 23.7491 9.95005C25.9191 14.32 23.8291 19.05 20.4891 21.3V22.05C20.4991 22.34 20.5091 22.87 20.0991 23.29C19.7891 23.59 19.3491 23.75 18.7691 23.75ZM13.0391 22.24C13.0891 22.24 13.1591 22.25 13.2491 22.25H18.7691C18.8691 22.25 18.9391 22.24 18.9791 22.23C18.9791 22.2 18.9791 22.16 18.9791 22.13V20.87C18.9791 20.61 19.1191 20.36 19.3391 20.23C22.2991 18.44 24.2591 14.35 22.3891 10.6C21.4691 8.75005 19.6891 7.38005 17.6291 6.93005C15.4491 6.45005 13.2191 6.96005 11.5191 8.33005C9.81914 9.70005 8.84914 11.73 8.84914 13.91C8.84914 16.69 10.7691 19.09 12.6691 20.24C12.8991 20.38 13.0291 20.62 13.0291 20.88V22.23C13.0391 22.23 13.0391 22.23 13.0391 22.24Z" fill="#292D32"/>
<path d="M19.4993 26.7499C19.4293 26.7499 19.3593 26.7399 19.2893 26.7199C17.1293 26.0999 14.8593 26.0999 12.6993 26.7199C12.2993 26.8299 11.8893 26.5999 11.7693 26.1999C11.6493 25.7999 11.8893 25.3899 12.2893 25.2699C14.7093 24.5799 17.2793 24.5799 19.6993 25.2699C20.0993 25.3799 20.3293 25.7999 20.2193 26.1999C20.1293 26.5399 19.8293 26.7499 19.4993 26.7499Z" fill="#292D32"/>
</svg>
