<svg width="32" height="32" viewBox="0 0 32 32" fill="none" xmlns="http://www.w3.org/2000/svg">
<g clip-path="url(#clip0_3039_2482)">
<path d="M25.1971 28H21.6815C21.0999 28 20.6268 27.5268 20.6268 26.9453V23.9022C20.0662 24.3689 19.4715 24.7809 18.9534 25.1103C17.6519 25.9381 16.1491 26.6672 15.1249 26.9677C15.0139 27.0003 14.8958 27.0003 14.7848 26.9677C13.7607 26.6672 12.2579 25.9381 10.9564 25.1103C9.82587 24.3912 8.32952 23.279 7.6211 22.0635C5.60191 18.5993 4.89062 9.61686 4.89062 7.95298C4.89062 7.69544 5.01517 7.46524 5.2157 7.35223C7.0496 6.31835 10.1787 5.22231 14.5159 4.09473C14.645 4.06117 14.8575 4 14.9549 4C15.0524 4 15.2649 4.06117 15.3939 4.09473C18.9353 5.01546 21.6915 5.9231 23.586 6.79244C23.6707 6.83133 23.7365 6.90229 23.7689 6.9897C23.8014 7.07712 23.7977 7.17383 23.7588 7.25857C23.7199 7.34331 23.649 7.40912 23.5616 7.44154C23.4742 7.47396 23.3774 7.47033 23.2927 7.43144C21.4357 6.57926 18.7186 5.68558 15.217 4.77517C15.1296 4.75259 15.0422 4.72971 14.9549 4.70655C14.8964 4.72225 14.8079 4.74527 14.6928 4.77517C9.41117 6.14838 6.83158 7.25458 5.59403 7.94618C5.59384 7.94846 5.59374 7.95074 5.59375 7.95302C5.59375 9.51992 6.31136 18.4202 8.22855 21.7096C8.7258 22.5627 9.82863 23.5598 11.3337 24.5171C12.5723 25.3049 13.9891 25.9962 14.9549 26.2848C15.9207 25.9962 17.3376 25.3048 18.5761 24.5171C20.0812 23.5598 21.1839 22.5628 21.6812 21.7096C21.6885 21.6971 21.6957 21.6846 21.7029 21.6719H21.6815C21.4417 21.6721 21.2092 21.5903 21.0224 21.4401C20.0465 22.9878 16.8807 24.8685 15.0748 25.5061C15.0463 25.5164 15.0167 25.523 14.9865 25.5257L14.986 25.5257C14.9752 25.5266 14.9644 25.5271 14.9536 25.5271H14.953C14.9099 25.5269 14.8673 25.5189 14.8272 25.5033C13.4474 25.0145 11.2185 23.7904 9.79259 22.4773C9.72399 22.4142 9.68329 22.3263 9.67944 22.2332C9.67558 22.14 9.7089 22.0491 9.77206 21.9805C9.83521 21.9119 9.92303 21.8712 10.0162 21.8674C10.1094 21.8635 10.2002 21.8968 10.2688 21.96C11.4354 23.0342 13.2741 24.1081 14.6031 24.6626L14.6032 15.3437H7.79801C8.19532 17.6155 8.74235 19.7983 9.44351 21.0013C9.49046 21.0819 9.50348 21.1778 9.47972 21.2679C9.45596 21.3581 9.39736 21.4351 9.31681 21.4821C9.27692 21.5053 9.23285 21.5205 9.1871 21.5267C9.14135 21.5329 9.09483 21.5301 9.05018 21.5183C9.00554 21.5065 8.96365 21.4861 8.92691 21.4581C8.89017 21.4302 8.85929 21.3953 8.83605 21.3554C7.10083 18.3783 6.40605 10.5306 6.31497 8.59202C6.31176 8.52359 6.32862 8.4557 6.36347 8.39672C6.39832 8.33773 6.44965 8.29022 6.51114 8.26001C8.31916 7.37154 11.1276 6.42897 14.8589 5.45852C14.8873 5.45049 14.9166 5.44606 14.9462 5.44535H14.947C14.9522 5.44525 14.9576 5.44525 14.9628 5.44535H14.9636C14.9932 5.44606 15.0226 5.4505 15.0511 5.45857C18.7823 6.42902 21.5907 7.37154 23.3987 8.26001C23.4602 8.29024 23.5115 8.33777 23.5464 8.39676C23.5812 8.45575 23.5981 8.52363 23.5949 8.59207C23.5794 8.92029 23.5547 9.30434 23.5224 9.71871H24.2229C24.2911 8.83512 24.3161 8.23409 24.3161 7.95298C24.3161 7.94946 24.3159 7.94618 24.3155 7.94341C24.243 7.89067 24.1934 7.81223 24.1768 7.72413C24.1602 7.63603 24.1779 7.54492 24.2263 7.46942C24.2746 7.39392 24.35 7.33974 24.4369 7.31795C24.5239 7.29616 24.6159 7.3084 24.6941 7.35218C24.8946 7.46519 25.0192 7.6954 25.0192 7.95293C25.0192 8.24154 24.9946 8.8459 24.9277 9.72354C25.0146 9.7383 25.0927 9.78515 25.1467 9.8548C25.2007 9.92445 25.2266 10.0118 25.2192 10.0996C25.2118 10.1874 25.1717 10.2693 25.1069 10.3289C25.042 10.3886 24.9571 10.4217 24.869 10.4218H21.6815C21.4876 10.4218 21.33 10.5795 21.33 10.7734V14.289C21.33 14.4829 21.4876 14.6406 21.6815 14.6406H25.1972C25.391 14.6406 25.5487 14.4829 25.5487 14.289V11.7778L23.8066 13.52C23.7407 13.5859 23.6512 13.6229 23.558 13.6229C23.4648 13.6229 23.3753 13.5859 23.3094 13.52L22.1361 12.3467C22.0701 12.2807 22.0331 12.1913 22.0331 12.0981C22.0331 12.0048 22.0701 11.9154 22.1361 11.8495C22.202 11.7835 22.2914 11.7465 22.3847 11.7465C22.4779 11.7465 22.5673 11.7835 22.6333 11.8495L23.558 12.7743L26.5105 9.8217C26.5765 9.75577 26.6659 9.71872 26.7591 9.71872C26.8524 9.71872 26.9418 9.75577 27.0077 9.8217C27.0737 9.88763 27.1107 9.97706 27.1107 10.0703C27.1107 10.1635 27.0737 10.253 27.0077 10.3189L26.2518 11.0748V14.289C26.2518 14.8706 25.7787 15.3437 25.1972 15.3437H24.2508C24.2116 15.5784 24.1707 15.8128 24.1282 16.0469H24.869C25.0632 16.0469 25.2206 16.2042 25.2206 16.3984C25.2206 16.5926 25.0632 16.75 24.869 16.75H21.6815C21.4876 16.75 21.33 16.9077 21.33 17.1015C21.33 17.1015 21.3318 20.6583 21.3353 20.6782C21.3365 20.6839 21.3377 20.6897 21.3388 20.6956C21.3745 20.8518 21.5146 20.9687 21.6815 20.9687H25.1972C25.391 20.9687 25.5487 20.811 25.5487 20.6172V18.106L23.8066 19.8482C23.7407 19.9141 23.6512 19.9511 23.558 19.9511C23.4648 19.9511 23.3753 19.9141 23.3094 19.8482L22.1361 18.6749C22.1034 18.6422 22.0775 18.6035 22.0599 18.5608C22.0422 18.5181 22.0331 18.4724 22.0331 18.4263C22.0331 18.3801 22.0422 18.3344 22.0599 18.2917C22.0775 18.2491 22.1034 18.2103 22.1361 18.1777C22.1687 18.145 22.2075 18.1191 22.2501 18.1014C22.2928 18.0838 22.3385 18.0747 22.3847 18.0747C22.4308 18.0747 22.4766 18.0838 22.5192 18.1014C22.5619 18.1191 22.6006 18.145 22.6333 18.1777L23.558 19.1025L26.5105 16.1499C26.5432 16.1172 26.5819 16.0913 26.6246 16.0737C26.6673 16.056 26.713 16.0469 26.7591 16.0469C26.8053 16.0469 26.851 16.056 26.8937 16.0737C26.9363 16.0913 26.9751 16.1172 27.0077 16.1499C27.0404 16.1825 27.0663 16.2213 27.084 16.2639C27.1016 16.3066 27.1107 16.3523 27.1107 16.3985C27.1107 16.4447 27.1016 16.4904 27.084 16.533C27.0663 16.5757 27.0404 16.6144 27.0077 16.6471L26.2518 17.4029V20.6172C26.2518 21.1988 25.7787 21.6719 25.1972 21.6719H22.5003C22.4339 21.8046 22.3633 21.9352 22.2887 22.0636C22.2264 22.1701 22.1598 22.274 22.089 22.375H24.869C25.0632 22.375 25.2206 22.5324 25.2206 22.7266C25.2206 22.9208 25.0632 23.0782 24.869 23.0782H21.6815C21.4876 23.0782 21.33 23.2359 21.33 23.4297V26.9454C21.33 27.1392 21.4876 27.2969 21.6815 27.2969H25.1972C25.391 27.2969 25.5487 27.1392 25.5487 26.9454V24.4342L23.8066 26.1764C23.7407 26.2423 23.6512 26.2793 23.558 26.2793C23.4648 26.2793 23.3753 26.2423 23.3094 26.1764L22.1361 25.003C22.1034 24.9704 22.0775 24.9316 22.0599 24.889C22.0422 24.8463 22.0331 24.8006 22.0331 24.7544C22.0331 24.7083 22.0422 24.6626 22.0599 24.6199C22.0775 24.5772 22.1034 24.5385 22.1361 24.5058C22.1687 24.4732 22.2075 24.4473 22.2501 24.4296C22.2928 24.412 22.3385 24.4029 22.3847 24.4029C22.4308 24.4029 22.4766 24.412 22.5192 24.4296C22.5619 24.4473 22.6006 24.4732 22.6333 24.5058L23.558 25.4306L26.5105 22.4781C26.5765 22.4121 26.6659 22.3751 26.7591 22.3751C26.8524 22.3751 26.9418 22.4121 27.0077 22.4781C27.0737 22.544 27.1107 22.6334 27.1107 22.7267C27.1107 22.8199 27.0737 22.9093 27.0077 22.9753L26.2518 23.7311V26.9454C26.2518 27.5268 25.7787 28 25.1971 28ZM15.3064 15.3437L15.3063 24.664C17.2148 23.8756 19.77 22.196 20.4663 21.0013C20.5209 20.9076 20.5757 20.8057 20.6298 20.6974C20.6278 20.6707 20.6268 20.6439 20.6268 20.6172V17.1015C20.6268 16.52 21.0999 16.0469 21.6815 16.0469H21.9815C22.0262 15.8128 22.069 15.5784 22.11 15.3437H15.3064ZM22.6972 16.0469H23.4133C23.4556 15.8174 23.4973 15.5826 23.5378 15.3437H22.8236C22.7825 15.5826 22.7402 15.8175 22.6972 16.0469ZM15.3064 14.6406H20.687C20.647 14.5277 20.6267 14.4088 20.6268 14.289V10.7734C20.6268 10.1919 21.0999 9.71871 21.6815 9.71871H22.8171C22.8418 9.40969 22.8629 9.10038 22.8805 8.79087C21.6499 8.20985 19.3756 7.33005 15.3065 6.25254L15.3064 14.6406ZM7.68007 14.6406H14.6032L14.6033 6.25254C10.5342 7.33005 8.25982 8.20995 7.02921 8.79092C7.10585 10.1815 7.32147 12.4094 7.68007 14.6406Z" fill="black"/>
</g>
<defs>
<clipPath id="clip0_3039_2482">
<rect width="24" height="24" fill="white" transform="translate(4 4)"/>
</clipPath>
</defs>
</svg>
